<?xml version="1.0" standalone="no"?>
<!DOCTYPE svg PUBLIC "-//W3C//DTD SVG 20010904//EN"
 "http://www.w3.org/TR/2001/REC-SVG-20010904/DTD/svg10.dtd">
<svg version="1.0" xmlns="http://www.w3.org/2000/svg"
 width="284.000000pt" height="597.000000pt" viewBox="0 0 284.000000 597.000000"
 preserveAspectRatio="xMidYMid meet">

<g transform="translate(0.000000,597.000000) scale(0.100000,-0.100000)"
fill="#000000" stroke="none">
<path d="M937 5219 c7 -7 15 -10 18 -7 3 3 -2 9 -12 12 -14 6 -15 5 -6 -5z"/>
<path d="M1090 5211 c-12 -24 -13 -44 -1 -37 8 5 22 56 15 56 -2 0 -8 -9 -14
-19z"/>
<path d="M1896 5193 c4 -16 11 -32 15 -37 16 -17 10 -54 -10 -68 -12 -9 -17
-19 -12 -27 9 -15 3 -60 -12 -81 -10 -13 -9 -13 5 0 20 18 48 100 48 139 0 28
-26 101 -35 101 -3 0 -2 -12 1 -27z"/>
<path d="M1461 5174 c-6 -22 -26 -87 -45 -146 l-33 -106 47 -70 46 -71 52 69
52 70 -47 137 c-25 76 -49 142 -54 147 -4 5 -12 -9 -18 -30z"/>
<path d="M1070 5116 c0 -42 20 -105 41 -130 5 -6 16 -20 25 -31 10 -14 10 -9
-2 15 -10 19 -19 40 -20 46 -1 6 -5 21 -9 33 -6 21 8 30 20 11 4 -6 11 -8 16
-4 6 4 3 13 -8 24 -12 12 -20 14 -25 6 -5 -7 -8 -4 -8 7 0 9 -5 17 -11 17 -7
0 -9 10 -7 25 3 14 1 25 -3 25 -5 0 -9 -20 -9 -44z"/>
<path d="M1692 5088 c-7 -7 -12 -8 -12 -4 0 5 -7 3 -15 -4 -12 -10 -12 -15 1
-36 19 -27 36 -17 48 29 7 29 -2 35 -22 15z"/>
<path d="M1400 4769 c-30 -4 -85 -10 -123 -14 -51 -5 -75 -13 -97 -32 -17 -13
-30 -30 -30 -36 0 -6 12 0 27 14 18 15 22 17 11 4 -12 -15 -14 -25 -7 -37 9
-17 12 -16 40 5 73 54 436 56 534 3 43 -23 75 -23 75 -1 0 11 -33 29 -50 27
-3 0 -10 4 -15 8 -6 5 -51 11 -100 14 -50 4 -108 9 -130 13 -22 4 -43 6 -47 5
-5 -1 -8 3 -8 9 0 6 12 8 33 4 17 -4 52 -8 77 -10 54 -4 149 -14 170 -18 9 -1
33 -12 53 -24 20 -12 37 -18 37 -14 0 5 -20 21 -44 35 -33 19 -62 26 -122 30
-43 3 -89 8 -101 10 -14 3 -23 0 -23 -7 0 -9 -2 -9 -8 0 -9 15 -84 21 -152 12z
m70 -16 c0 -5 -22 -9 -49 -11 -28 -2 -60 -5 -73 -8 -47 -10 -107 -13 -112 -5
-3 4 0 8 7 8 25 0 161 14 164 16 6 7 63 6 63 0z"/>
<path d="M1104 4449 c-3 -6 -1 -16 5 -22 8 -8 11 -5 11 11 0 24 -5 28 -16 11z"/>
<path d="M1315 4440 c-18 -19 -18 -22 -2 -56 34 -70 15 -120 -53 -148 -29 -12
-38 -12 -52 -2 -21 16 -48 76 -48 109 0 13 -6 31 -13 41 -12 16 -13 10 -6 -40
8 -66 23 -111 46 -136 8 -9 12 -22 7 -29 -5 -9 -2 -10 12 -4 10 4 38 15 62 23
98 34 127 102 77 176 -28 41 -31 56 -13 74 7 7 10 12 7 12 -3 0 -14 -9 -24
-20z"/>
<path d="M1624 4439 c15 -24 15 -27 -9 -49 -34 -32 -51 -90 -36 -119 15 -27
72 -63 135 -84 58 -20 59 -20 52 -8 -3 5 10 28 29 51 19 23 36 49 37 58 6 72
6 102 -3 97 -5 -4 -9 -17 -9 -30 0 -101 -104 -153 -171 -86 -34 35 -36 53 -9
106 l20 39 -26 26 -26 25 16 -26z"/>
<path d="M1517 4159 c7 -7 15 -10 18 -7 3 3 -2 9 -12 12 -14 6 -15 5 -6 -5z"/>
<path d="M1578 4153 c7 -3 16 -2 19 1 4 3 -2 6 -13 5 -11 0 -14 -3 -6 -6z"/>
<path d="M1300 4143 c8 -3 23 -10 32 -15 14 -6 16 -5 12 7 -4 8 -18 15 -33 14
-15 0 -20 -3 -11 -6z"/>
<path d="M1599 4133 c-13 -15 -12 -15 10 -4 22 12 49 11 96 -4 14 -4 13 -2 -5
9 -33 20 -84 20 -101 -1z"/>
<path d="M760 4133 c0 -10 27 -91 49 -147 11 -27 12 -28 36 -12 32 21 35 21
69 -10 23 -22 30 -24 37 -13 6 10 -1 24 -25 46 -30 29 -34 37 -29 72 l5 39
-48 11 c-27 6 -59 13 -71 17 -13 3 -23 2 -23 -3z"/>
<path d="M2143 4113 l-63 -15 0 -38 c0 -31 -6 -44 -36 -69 -19 -17 -39 -29
-45 -26 -15 10 -11 -2 16 -41 25 -36 25 -36 20 -8 -5 24 -1 33 26 51 l31 21
33 -20 c39 -22 35 -26 79 81 37 93 42 88 -61 64z"/>
<path d="M1162 4100 c-45 -25 -53 -34 -18 -20 27 10 32 7 111 -72 l84 -82 -70
-75 c-39 -41 -84 -95 -100 -120 l-30 -46 48 54 c100 113 301 308 334 323 19 9
40 26 47 38 13 21 13 21 -15 3 -15 -9 -43 -28 -60 -41 l-32 -24 -48 41 c-26
22 -50 38 -52 35 -3 -3 13 -21 37 -40 23 -20 42 -39 42 -43 0 -4 -20 -24 -45
-44 l-45 -38 -37 42 c-21 23 -37 46 -35 51 1 4 -4 8 -11 8 -8 0 -22 9 -32 20
-10 12 -25 18 -32 16 -11 -4 -11 -1 -3 14 13 24 5 24 -38 0z"/>
<path d="M1736 4106 c3 -8 -12 -23 -38 -39 -66 -39 -368 -320 -440 -409 l-29
-37 62 -103 c64 -106 106 -163 76 -103 -8 17 -36 65 -61 109 -26 43 -46 82
-44 86 2 4 43 51 93 105 l89 97 41 -45 c79 -87 135 -156 135 -166 0 -5 -20
-38 -43 -73 -24 -35 -63 -98 -86 -140 -23 -43 -46 -80 -52 -83 -12 -8 -12 -25
1 -25 6 0 10 4 10 8 0 12 83 149 149 245 60 89 63 70 -34 187 -98 118 -94 106
-53 147 l36 36 30 -22 c32 -22 139 -155 186 -229 l27 -44 -24 -22 c-13 -12
-36 -45 -52 -74 -15 -29 -32 -52 -37 -52 -4 0 -8 -4 -8 -8 0 -5 -24 -45 -52
-88 -59 -89 -125 -192 -153 -242 -11 -18 -23 -31 -27 -30 -8 3 -202 301 -240
368 -57 103 -71 126 -84 140 -11 14 -10 21 6 48 11 18 16 32 11 32 -16 0 -42
-70 -35 -93 11 -36 99 -181 222 -365 95 -142 118 -170 129 -159 7 7 91 129
187 272 156 232 173 261 165 284 -12 34 -150 226 -195 272 l-35 36 44 39 c24
21 59 50 78 64 18 14 39 32 47 41 15 18 56 13 101 -10 15 -9 21 -9 17 -2 -4 6
-24 18 -44 27 -77 33 -81 34 -76 20z"/>
<path d="M1295 4060 c-3 -6 1 -7 9 -4 18 7 21 14 7 14 -6 0 -13 -4 -16 -10z"/>
<path d="M1877 4039 c7 -7 15 -10 18 -7 3 3 -2 9 -12 12 -14 6 -15 5 -6 -5z"/>
<path d="M870 3920 c0 -5 -6 -10 -14 -10 -16 0 -31 -18 -23 -26 8 -8 44 14 51
31 3 8 1 15 -4 15 -6 0 -10 -4 -10 -10z"/>
<path d="M2082 3901 c7 -11 14 -19 17 -19 4 1 14 -2 24 -7 33 -14 30 4 -4 24
-42 26 -53 26 -37 2z"/>
<path d="M1540 3869 c0 -5 5 -7 10 -4 6 3 10 8 10 11 0 2 -4 4 -10 4 -5 0 -10
-5 -10 -11z"/>
<path d="M2040 3876 c0 -2 7 -9 15 -16 13 -11 14 -10 9 4 -5 14 -24 23 -24 12z"/>
<path d="M1509 3843 c-13 -16 -12 -17 4 -4 16 13 21 21 13 21 -2 0 -10 -8 -17
-17z"/>
<path d="M2140 3710 c-5 -29 0 -64 10 -74 7 -7 10 -2 9 15 -1 32 -16 78 -19
59z"/>
<path d="M810 3691 c0 -11 -3 -28 -7 -38 -3 -10 -3 -15 1 -12 12 11 25 69 15
69 -5 0 -9 -9 -9 -19z"/>
<path d="M2163 3585 c0 -22 2 -30 4 -17 2 12 2 30 0 40 -3 9 -5 -1 -4 -23z"/>
<path d="M676 3449 c-14 -17 -26 -34 -26 -37 0 -4 16 -16 36 -27 l35 -19 23
29 c14 17 29 26 38 23 11 -5 14 0 10 18 -3 19 -9 23 -26 18 -14 -3 -28 1 -35
10 -19 22 -26 20 -55 -15z"/>
<path d="M2239 3444 c-9 -11 -22 -14 -41 -10 -15 3 -28 1 -28 -3 0 -5 -3 -16
-6 -24 -4 -12 0 -14 14 -10 13 3 26 -4 40 -22 23 -29 48 -30 86 -2 19 14 18
15 -10 51 -33 41 -36 42 -55 20z"/>
<path d="M763 3286 c10 -8 26 -40 37 -72 25 -72 82 -176 100 -182 8 -3 4 8 -9
26 -27 39 -91 175 -91 196 0 18 -27 46 -43 46 -7 0 -4 -7 6 -14z"/>
<path d="M2190 3270 c-9 -5 -31 -45 -50 -89 -18 -44 -51 -103 -72 -131 -35
-47 -38 -69 -4 -34 23 22 83 133 101 184 9 25 23 51 32 57 20 15 14 25 -7 13z"/>
<path d="M1985 3023 c-73 -77 -91 -90 -208 -149 l-129 -65 -61 39 c-34 22 -80
49 -103 61 l-40 22 -60 -36 c-32 -20 -71 -45 -85 -56 l-26 -21 -108 62 c-74
41 -111 57 -115 49 -6 -8 -13 -8 -28 0 -11 6 -23 7 -26 3 -3 -5 34 -21 82 -36
61 -20 104 -42 145 -73 l57 -45 58 54 c87 79 102 86 147 58 20 -12 62 -44 93
-71 31 -27 60 -49 63 -49 4 0 36 20 72 45 37 25 70 45 75 45 4 0 44 11 88 25
48 15 64 24 42 21 l-37 -5 83 82 c46 45 89 92 95 105 6 12 10 22 9 21 -2 -1
-39 -39 -83 -86z"/>
<path d="M966 3016 c26 -30 54 -58 63 -61 15 -6 -21 36 -78 92 -41 40 -34 25
15 -31z"/>
<path d="M1440 2692 c-8 -3 5 -11 30 -18 24 -7 45 -12 47 -10 7 6 -64 32 -77
28z"/>
<path d="M1185 2427 c-18 -10 -20 -29 -2 -26 34 4 77 -2 77 -12 0 -6 -11 -25
-24 -42 -28 -39 -39 -57 -33 -57 3 0 22 23 42 51 l36 50 129 -3 130 -3 -79
-80 c-114 -116 -181 -189 -181 -198 0 -5 -18 -25 -40 -44 -38 -34 -93 -117
-84 -126 3 -2 35 28 73 66 l69 71 45 -90 c24 -49 56 -111 70 -137 l26 -48 39
68 c22 37 52 88 66 113 15 25 29 53 33 63 3 9 9 17 13 17 4 0 40 -34 80 -76
39 -42 74 -73 77 -71 7 8 -47 84 -93 132 -57 58 -184 212 -184 222 0 5 25 33
54 62 47 47 57 52 71 41 13 -11 15 -10 9 4 -5 14 3 16 58 16 57 0 66 -3 76
-22 11 -23 11 -23 11 4 1 14 4 35 7 45 6 15 4 16 -7 6 -15 -15 -33 -17 -24 -4
3 6 -12 9 -35 8 -22 -1 -40 -5 -40 -9 0 -10 -249 -8 -255 3 -4 5 -11 9 -16 9
-6 0 -8 -4 -5 -8 3 -5 -1 -9 -9 -9 -8 0 -12 5 -8 10 3 5 -19 7 -56 4 -33 -2
-61 -1 -61 2 0 10 -37 8 -55 -2z m315 -229 c25 -33 52 -70 61 -82 16 -20 14
-26 -47 -136 -35 -63 -68 -115 -73 -115 -16 0 -133 234 -125 248 13 20 128
147 134 146 3 0 25 -27 50 -61z"/>
<path d="M1655 2300 c10 -11 20 -20 23 -20 3 0 -3 9 -13 20 -10 11 -20 20 -23
20 -3 0 3 -9 13 -20z"/>
<path d="M1722 2260 c-10 -17 -10 -26 3 -50 22 -42 39 -38 21 5 -9 20 -13 42
-10 50 9 21 1 18 -14 -5z"/>
<path d="M1167 2254 c-4 -4 -7 -14 -7 -23 0 -11 3 -12 11 -4 6 6 10 16 7 23
-2 6 -7 8 -11 4z"/>
<path d="M1196 1854 c-10 -25 -7 -202 3 -209 6 -3 9 32 7 90 -1 53 1 98 5 101
5 3 22 -10 39 -28 29 -32 30 -35 28 -121 -2 -48 0 -87 3 -87 3 0 9 39 12 88
l5 87 -41 46 c-47 53 -52 56 -61 33z"/>
<path d="M1635 1811 l-50 -49 -1 -89 c-1 -70 2 -90 13 -90 8 0 11 7 8 16 -2 9
-5 49 -6 89 -1 70 0 75 31 107 18 19 36 32 40 30 3 -2 5 -45 3 -95 -2 -75 -6
-95 -20 -107 -16 -13 -16 -13 5 -3 32 15 33 22 30 138 l-3 102 -50 -49z"/>
<path d="M1255 1579 c-3 -8 -11 -35 -19 -61 -22 -74 -95 -159 -189 -221 l-82
-53 3 -50 4 -50 77 -42 c150 -81 395 -106 644 -66 27 4 207 69 211 76 7 12 26
77 26 89 -1 8 -40 38 -87 68 -90 57 -189 162 -199 211 -11 47 -26 91 -31 87
-2 -3 2 -30 11 -61 16 -62 87 -153 174 -224 64 -51 74 -61 89 -90 16 -29 16
-35 3 -27 -5 3 -7 0 -4 -9 3 -8 -3 -19 -15 -25 -26 -14 -34 -14 -26 2 4 6 0 4
-8 -5 -16 -21 -31 -24 -22 -5 4 6 0 4 -8 -6 -9 -10 -18 -18 -21 -18 -20 3 -26
0 -21 -9 3 -5 0 -7 -8 -4 -8 3 -21 -1 -28 -8 -8 -8 -25 -14 -39 -14 -14 0 -31
-3 -37 -7 -6 -4 -14 -4 -17 1 -3 5 -20 6 -38 4 -18 -2 -63 -5 -100 -7 -37 -2
-72 -6 -77 -9 -5 -4 -12 -2 -16 3 -3 6 -12 8 -20 5 -8 -3 -28 1 -45 9 -17 9
-27 11 -24 5 4 -6 -1 -8 -12 -4 -26 7 -71 16 -119 22 -22 3 -43 11 -47 17 -6
9 -8 8 -8 -2 0 -12 -2 -12 -12 1 -7 9 -32 26 -56 38 -23 12 -45 26 -48 31 -3
5 -10 7 -15 4 -5 -4 -9 6 -9 20 0 19 12 37 43 63 23 20 77 72 120 116 67 69
79 87 97 145 10 36 17 67 15 69 -3 3 -7 -1 -10 -9z"/>
<path d="M1400 1530 c-17 -22 -27 -40 -21 -40 6 0 11 3 11 8 1 4 10 18 20 31
18 20 22 22 38 10 16 -13 16 -12 2 6 -8 11 -15 21 -16 23 -1 2 -16 -15 -34
-38z"/>
<path d="M1477 1499 c7 -7 15 -10 18 -7 3 3 -2 9 -12 12 -14 6 -15 5 -6 -5z"/>
<path d="M857 1140 c7 -57 23 -96 80 -194 33 -55 47 -92 49 -120 3 -80 4 -87
13 -82 5 3 7 24 4 46 -5 39 -5 40 38 58 59 25 208 68 289 82 97 17 229 -17
498 -127 9 -4 11 -19 7 -52 -4 -42 -2 -42 11 -2 3 11 7 11 19 1 8 -7 15 -8 15
-2 0 5 -7 15 -15 22 -8 7 -15 19 -15 26 0 15 39 81 62 105 40 41 94 128 114
183 l22 61 -39 -2 c-46 -2 -59 -9 -59 -29 0 -8 -4 -14 -10 -14 -5 0 -10 -9
-10 -19 0 -25 -57 -168 -79 -198 -9 -12 -20 -23 -25 -23 -5 0 -57 18 -115 39
-195 72 -416 79 -602 20 -75 -24 -95 -27 -105 -17 -15 16 -51 152 -60 228 l-6
55 -43 0 -43 0 5 -45z"/>
</g>
</svg>
