<?xml version="1.0" standalone="no"?>
<!DOCTYPE svg PUBLIC "-//W3C//DTD SVG 20010904//EN"
 "http://www.w3.org/TR/2001/REC-SVG-20010904/DTD/svg10.dtd">
<svg version="1.0" xmlns="http://www.w3.org/2000/svg"
 width="284.000000pt" height="597.000000pt" viewBox="0 0 284.000000 597.000000"
 preserveAspectRatio="xMidYMid meet">

<g transform="translate(0.000000,597.000000) scale(0.100000,-0.100000)"
fill="#000000" stroke="none">
<path d="M1407 5573 c-3 -5 -5 -27 -5 -50 l-1 -43 43 0 c23 0 45 2 47 4 2 3 3
25 1 50 l-4 46 -38 0 c-22 0 -41 -3 -43 -7z"/>
<path d="M920 5411 c0 -23 5 -41 10 -41 6 0 10 15 10 34 0 19 -4 38 -10 41 -6
4 -10 -10 -10 -34z"/>
<path d="M1950 5436 c-14 -18 -10 -58 8 -64 8 -2 12 9 12 37 0 45 -2 48 -20
27z"/>
<path d="M1245 5150 c-202 -14 -334 -43 -383 -85 -15 -13 -23 -28 -20 -37 13
-33 132 -68 155 -45 4 5 1 17 -6 28 -7 12 -11 22 -9 24 2 2 39 17 83 33 105
40 358 68 469 53 39 -6 105 -13 146 -17 41 -3 89 -13 105 -22 17 -8 48 -21 70
-28 36 -11 40 -14 37 -43 -3 -42 30 -50 92 -22 115 51 53 104 -164 141 -123
21 -416 31 -575 20z"/>
<path d="M983 4770 c-1 -11 4 -20 13 -20 8 0 14 9 14 20 0 11 -6 20 -13 20 -7
0 -13 -9 -14 -20z"/>
<path d="M1865 4780 c-8 -13 14 -42 26 -34 5 3 9 14 9 25 0 20 -24 26 -35 9z"/>
<path d="M1218 4513 c-11 -3 -18 -17 -20 -41 -3 -36 -4 -37 -58 -47 -35 -7
-50 -13 -42 -19 18 -11 112 3 113 17 0 7 2 26 2 42 2 27 7 31 47 42 44 11 44
11 10 11 -19 0 -43 -2 -52 -5z"/>
<path d="M1625 4513 c45 -7 56 -21 49 -58 -7 -39 -1 -44 66 -52 67 -8 67 13 0
22 -50 7 -50 7 -50 45 0 40 -16 51 -70 48 -21 -1 -21 -2 5 -5z"/>
<path d="M1405 4436 c-16 -18 -38 -37 -49 -43 -18 -10 -17 -13 12 -75 29 -63
52 -136 67 -223 9 -48 14 -37 39 75 9 41 31 106 48 144 l32 68 -29 22 c-17 11
-40 31 -51 43 -27 29 -32 28 -69 -11z"/>
<path d="M1204 4304 c-18 -14 -18 -14 5 -3 22 10 27 9 43 -12 10 -13 21 -28
26 -34 4 -5 25 -40 47 -77 21 -37 40 -66 42 -64 4 4 -52 104 -91 164 -31 46
-42 50 -72 26z"/>
<path d="M1617 4274 c-34 -46 -108 -177 -90 -159 5 6 36 52 67 103 49 78 61
92 78 86 14 -4 18 -2 14 5 -14 22 -36 10 -69 -35z"/>
<path d="M563 4139 c35 -52 88 -133 117 -181 56 -92 82 -123 34 -40 -44 77
-193 300 -205 307 -6 4 18 -35 54 -86z"/>
<path d="M1033 4210 c-13 -5 -23 -12 -23 -15 0 -9 16 -5 36 10 22 16 19 18
-13 5z"/>
<path d="M2282 4082 c-50 -75 -94 -146 -98 -157 -4 -11 28 34 70 100 43 66 89
135 103 153 14 18 23 35 21 38 -3 2 -45 -58 -96 -134z"/>
<path d="M1857 4199 c7 -7 15 -10 18 -7 3 3 -2 9 -12 12 -14 6 -15 5 -6 -5z"/>
<path d="M845 4113 c-27 -9 -55 -17 -62 -19 -9 -2 -9 -12 2 -38 8 -20 15 -46
15 -60 0 -39 23 -52 99 -60 38 -3 107 -18 152 -32 44 -14 83 -24 85 -21 3 2
-25 30 -61 62 -36 31 -86 86 -111 121 -25 35 -51 64 -57 63 -7 0 -34 -8 -62
-16z"/>
<path d="M1941 4081 c-18 -28 -65 -81 -105 -118 -96 -90 -98 -96 -29 -72 76
26 184 49 233 49 42 0 43 1 55 75 4 22 12 46 17 53 14 17 10 20 -48 36 -27 8
-58 17 -70 21 -17 5 -27 -2 -53 -44z"/>
<path d="M1410 4001 c0 -6 4 -13 10 -16 6 -3 7 1 4 9 -7 18 -14 21 -14 7z"/>
<path d="M1442 3920 c0 -14 2 -19 5 -12 2 6 2 18 0 25 -3 6 -5 1 -5 -13z"/>
<path d="M2151 3873 c-10 -26 -10 -27 4 -9 8 11 15 23 15 28 0 15 -7 8 -19
-19z"/>
<path d="M751 3840 c14 -31 19 -36 19 -24 0 6 -7 19 -16 30 -14 18 -14 18 -3
-6z"/>
<path d="M934 3838 c-3 -4 22 -7 55 -6 32 2 57 5 54 8 -8 8 -104 7 -109 -2z"/>
<path d="M807 3833 c-3 -5 16 -7 41 -5 73 5 82 10 20 11 -31 0 -59 -2 -61 -6z"/>
<path d="M1060 3837 c3 -2 31 -8 63 -11 33 -4 70 -11 83 -16 13 -5 24 -6 24
-1 0 5 -6 11 -14 14 -20 8 -162 21 -156 14z"/>
<path d="M1723 3829 c-24 -4 -51 -13 -60 -19 -16 -10 -15 -10 4 -5 27 7 57 13
108 21 22 3 42 8 44 10 7 6 -50 3 -96 -7z"/>
<path d="M1880 3834 c57 -7 208 -8 203 -1 -2 4 -55 6 -116 6 -62 -1 -101 -3
-87 -5z"/>
<path d="M787 3760 c3 -11 7 -20 9 -20 2 0 4 9 4 20 0 11 -4 20 -9 20 -5 0 -7
-9 -4 -20z"/>
<path d="M2095 3769 c-4 -6 -5 -12 -2 -15 2 -3 7 2 10 11 7 17 1 20 -8 4z"/>
<path d="M1188 3520 c-42 -48 -84 -110 -74 -110 2 0 21 24 42 53 21 28 51 64
66 80 15 15 24 27 19 27 -5 0 -29 -22 -53 -50z"/>
<path d="M1661 3548 c12 -13 39 -47 61 -75 43 -56 62 -71 33 -25 -30 45 -96
122 -106 122 -6 0 0 -10 12 -22z"/>
<path d="M1060 3508 c-30 -11 -91 -24 -135 -30 -130 -16 -121 -12 -129 -65 -3
-27 -9 -59 -12 -73 -6 -26 2 -30 111 -55 15 -4 29 8 60 51 22 31 67 81 100
112 59 54 84 83 68 81 -4 -1 -33 -10 -63 -21z"/>
<path d="M1756 3519 c3 -8 29 -32 57 -54 29 -23 78 -75 110 -116 l57 -75 65
20 c62 20 65 23 60 46 -4 14 -9 43 -12 65 -3 22 -8 43 -12 47 -4 5 -34 11 -66
14 -56 6 -208 42 -248 59 -12 5 -16 3 -11 -6z"/>
<path d="M1818 3323 c26 -50 48 -90 50 -88 5 4 -63 136 -82 160 -9 11 6 -21
32 -72z"/>
<path d="M1088 3378 c-30 -45 -79 -150 -74 -156 3 -3 6 -1 6 4 0 5 20 45 45
88 25 44 43 81 41 83 -2 2 -10 -7 -18 -19z"/>
<path d="M1430 3313 c0 -40 -32 -148 -64 -216 -15 -31 -26 -61 -24 -65 4 -10
94 -92 100 -92 2 0 28 22 57 48 l53 49 -25 49 c-31 63 -57 142 -65 201 -8 52
-32 72 -32 26z"/>
<path d="M607 3170 c-48 -4 -90 -10 -93 -13 -4 -4 40 -3 97 1 57 4 175 7 262
7 86 0 157 3 157 8 0 9 -300 7 -423 -3z"/>
<path d="M1863 3173 c-6 -4 53 -8 130 -8 78 0 196 -3 262 -7 75 -4 105 -3 80
2 -55 12 -457 23 -472 13z"/>
<path d="M1193 3064 c28 -33 21 -43 -35 -46 l-53 -3 48 -28 c26 -15 45 -32 42
-37 -3 -5 16 -15 42 -23 48 -14 48 -15 107 -128 63 -121 61 -110 18 -176 -23
-36 3 -26 32 12 l27 34 -47 93 c-74 148 -153 284 -177 304 -22 19 -22 19 -4
-2z"/>
<path d="M1663 3033 c-53 -85 -70 -116 -132 -236 l-60 -118 31 -43 30 -44 -41
-61 c-46 -67 -47 -86 -7 -129 48 -53 90 -92 100 -92 6 0 -7 17 -28 39 l-37 38
48 96 c42 83 51 95 73 95 14 0 45 5 70 12 89 23 89 23 96 6 4 -10 -9 -48 -31
-92 -23 -48 -34 -79 -28 -85 11 -11 26 9 67 89 14 28 31 52 36 52 11 0 -19 71
-34 82 -6 4 -18 2 -27 -3 -20 -10 -136 -37 -187 -43 -19 -2 -36 -7 -39 -10 -3
-3 -21 19 -40 49 l-34 54 57 115 c54 106 60 115 91 121 19 3 36 12 39 20 3 8
27 27 52 42 l47 28 -53 3 -54 3 17 25 c9 14 15 28 12 30 -2 3 -18 -17 -34 -43z
m-132 -486 c-10 -9 -11 -8 -5 6 3 10 9 15 12 12 3 -3 0 -11 -7 -18z"/>
<path d="M1449 2640 c-9 -10 -13 -23 -10 -29 5 -7 12 -2 20 15 14 32 11 36
-10 14z"/>
<path d="M1047 2603 c-16 -33 -19 -47 -10 -50 7 -3 29 -36 50 -74 20 -38 40
-69 45 -69 16 0 18 21 4 42 -8 13 -26 49 -40 80 -24 55 -25 58 -7 67 12 7 33
5 65 -4 27 -8 64 -16 84 -18 33 -3 40 -10 64 -53 15 -27 31 -49 37 -49 5 0 25
-14 45 -31 61 -54 62 -24 2 63 l-55 80 -63 12 c-146 28 -168 33 -173 42 -12
19 -26 8 -48 -38z"/>
<path d="M1330 2344 c-63 -49 -70 -58 -35 -42 33 15 91 65 84 72 -3 3 -25 -11
-49 -30z"/>
<path d="M1181 2271 c-13 -3 -27 -13 -31 -21 -43 -90 -58 -130 -49 -135 5 -4
16 10 24 29 9 20 20 36 25 36 6 0 10 7 10 15 0 8 14 30 31 50 32 36 31 38 -10
26z"/>
<path d="M1688 2260 c13 -11 37 -45 53 -77 16 -32 34 -62 39 -67 17 -17 12 12
-10 54 -11 22 -20 45 -20 52 -1 23 -24 44 -55 51 l-30 7 23 -20z"/>
<path d="M911 1606 c-24 -25 -24 -26 -7 -69 12 -31 16 -76 16 -168 0 -69 3
-129 6 -132 4 -3 15 5 26 19 24 29 82 61 158 85 l55 17 3 62 3 62 -48 -7 c-26
-4 -73 -20 -105 -36 -32 -16 -62 -29 -67 -29 -6 0 -12 46 -13 111 l-3 111 -24
-26z"/>
<path d="M1948 1527 c-1 -58 -6 -109 -11 -113 -4 -4 -37 7 -73 25 -37 18 -83
33 -107 34 l-42 2 0 -45 c-2 -59 8 -77 47 -86 50 -10 149 -61 165 -84 29 -42
40 -24 47 79 4 54 4 114 1 133 -4 23 -1 48 10 73 15 38 15 39 -9 63 l-24 25
-4 -106z"/>
<path d="M1373 1225 c2 -5 37 -10 77 -10 40 0 75 5 77 10 2 6 -28 10 -77 10
-49 0 -79 -4 -77 -10z"/>
<path d="M1405 1100 c3 -5 16 -10 28 -10 18 0 19 2 7 10 -20 13 -43 13 -35 0z"/>
<path d="M1470 1100 c-13 -8 -13 -10 2 -10 9 0 20 5 23 10 8 13 -5 13 -25 0z"/>
<path d="M1223 953 c11 -13 17 -36 17 -65 l0 -46 48 -6 c70 -10 207 -10 290
-2 77 9 72 3 76 72 0 12 10 32 21 44 l20 23 -105 -8 c-134 -11 -144 -11 -275
-1 -108 8 -110 8 -92 -11z"/>
<path d="M890 851 c0 -5 5 -13 10 -16 6 -3 10 -2 10 4 0 5 -4 13 -10 16 -5 3
-10 2 -10 -4z"/>
<path d="M1075 772 c-3 -3 -5 -21 -5 -39 0 -34 -1 -34 -32 -28 -18 4 -48 14
-67 21 -29 12 -32 12 -22 0 12 -15 93 -46 118 -46 8 0 13 13 13 34 0 42 10 50
47 35 15 -6 62 -16 103 -23 l75 -12 3 -39 c2 -22 9 -43 15 -47 17 -11 211 -10
241 2 19 7 24 16 24 38 -1 42 7 50 60 57 26 3 71 13 101 21 41 12 55 13 61 4
4 -7 10 -8 13 -3 3 5 2 15 -2 21 -6 10 -17 10 -52 -2 -24 -8 -69 -18 -99 -21
-100 -11 -100 -11 -100 -54 0 -35 -3 -39 -31 -45 -40 -8 -157 -8 -186 0 -18 5
-23 14 -23 40 0 41 -21 54 -83 54 -25 0 -72 8 -106 19 -33 10 -63 16 -66 13z"/>
<path d="M1961 756 c-17 -21 -117 -57 -136 -50 -16 6 -21 -11 -6 -20 22 -14
176 63 159 79 -3 3 -11 -1 -17 -9z"/>
<path d="M1170 480 c0 -5 5 -10 11 -10 5 0 7 5 4 10 -3 6 -8 10 -11 10 -2 0
-4 -4 -4 -10z"/>
<path d="M1685 480 c-19 -8 -19 -9 3 -9 12 -1 22 4 22 9 0 6 -1 10 -2 9 -2 0
-12 -4 -23 -9z"/>
</g>
</svg>
