<?xml version="1.0" standalone="no"?>
<!DOCTYPE svg PUBLIC "-//W3C//DTD SVG 20010904//EN"
 "http://www.w3.org/TR/2001/REC-SVG-20010904/DTD/svg10.dtd">
<svg version="1.0" xmlns="http://www.w3.org/2000/svg"
 width="284.000000pt" height="597.000000pt" viewBox="0 0 284.000000 597.000000"
 preserveAspectRatio="xMidYMid meet">

<g transform="translate(0.000000,597.000000) scale(0.100000,-0.100000)"
fill="#000000" stroke="none">
<path d="M1061 4834 c0 -11 3 -14 6 -6 3 7 2 16 -1 19 -3 4 -6 -2 -5 -13z"/>
<path d="M1795 4821 c-5 -23 -19 -35 -78 -64 -100 -50 -176 -128 -124 -127 8
0 8 3 -1 9 -25 15 84 99 151 115 35 8 62 -6 110 -58 36 -39 35 -38 -8 24 -40
55 -46 69 -40 97 7 40 -1 44 -10 4z"/>
<path d="M1071 4794 c-1 -12 -22 -50 -47 -85 l-45 -64 50 53 c58 59 79 64 150
32 54 -25 123 -79 115 -91 -3 -5 3 -9 12 -9 45 0 -87 101 -169 130 -28 10 -54
26 -58 37 -7 16 -8 16 -8 -3z"/>
<path d="M1238 4623 c7 -3 16 -2 19 1 4 3 -2 6 -13 5 -11 0 -14 -3 -6 -6z"/>
<path d="M1910 4616 c0 -2 8 -10 18 -17 15 -13 16 -12 3 4 -13 16 -21 21 -21
13z"/>
<path d="M1808 4553 c6 -10 22 -29 37 -43 66 -61 173 -284 123 -254 -7 4 -5
-1 4 -12 9 -10 29 -66 43 -124 25 -95 27 -115 21 -219 -6 -104 -11 -124 -49
-215 -84 -204 -254 -342 -467 -380 -88 -16 -102 -16 -185 -1 -117 20 -115 20
-215 76 -169 96 -292 287 -306 474 -3 44 -7 93 -9 110 -2 16 8 77 22 135 20
80 37 121 70 173 25 37 46 77 48 89 5 24 59 111 81 129 8 7 25 26 37 43 l21
30 -54 -31 c-30 -17 -76 -50 -102 -73 -50 -43 -151 -187 -161 -230 -16 -67
-18 -260 -4 -356 20 -137 88 -274 193 -389 91 -101 224 -180 338 -201 165 -32
312 -11 448 65 190 105 331 313 365 536 21 143 3 415 -27 415 -4 0 -26 31 -48
68 -41 68 -91 115 -190 176 -34 21 -41 23 -34 9z"/>
<path d="M2091 3516 c-9 -11 -9 -16 1 -22 7 -4 10 -4 6 1 -4 4 -3 14 3 22 6 7
9 13 6 13 -2 0 -10 -6 -16 -14z"/>
<path d="M835 3470 c10 -11 20 -20 23 -20 3 0 -3 9 -13 20 -10 11 -20 20 -23
20 -3 0 3 -9 13 -20z"/>
<path d="M2039 3473 c-13 -16 -12 -17 4 -4 9 7 17 15 17 17 0 8 -8 3 -21 -13z"/>
<path d="M1960 3409 c-19 -16 -75 -50 -125 -76 -49 -25 -85 -48 -79 -50 6 -2
42 15 80 37 38 22 73 39 79 37 5 -2 13 -17 17 -33 6 -26 7 -26 4 6 -3 29 2 41
32 73 43 44 40 47 -8 6z"/>
<path d="M913 3404 c15 -17 28 -43 28 -60 1 -23 3 -25 6 -6 2 12 8 22 12 22 5
0 40 -18 79 -41 39 -23 77 -39 83 -37 7 2 -29 25 -79 51 -50 26 -106 59 -124
74 l-33 27 28 -30z"/>
<path d="M1134 3178 l-19 -23 23 19 c12 11 22 21 22 23 0 8 -8 2 -26 -19z"/>
<path d="M1710 3190 c20 -13 33 -13 25 0 -3 6 -14 10 -23 10 -15 0 -15 -2 -2
-10z"/>
<path d="M1760 3147 l25 -29 -44 -37 -45 -38 49 -59 c64 -77 69 -83 57 -59 -6
11 -29 43 -51 70 l-39 50 41 37 42 37 -30 28 -29 28 24 -28z"/>
<path d="M1094 3129 c-3 -6 10 -28 30 -48 l37 -37 -37 -50 -36 -49 45 50 46
50 -40 34 c-23 19 -38 39 -35 47 6 17 0 19 -10 3z"/>
<path d="M1521 2993 c0 -62 2 -113 7 -113 4 0 6 18 4 40 -2 22 -1 56 2 75 l7
35 62 2 62 1 -65 6 c-62 6 -65 7 -71 36 -4 17 -7 -21 -8 -82z"/>
<path d="M1243 3033 c15 -2 39 -2 55 0 15 2 2 4 -28 4 -30 0 -43 -2 -27 -4z"/>
<path d="M1070 2925 c-7 -9 -8 -15 -2 -15 5 0 12 7 16 15 3 8 4 15 2 15 -2 0
-9 -7 -16 -15z"/>
<path d="M1512 2835 c0 -16 2 -22 5 -12 2 9 2 23 0 30 -3 6 -5 -1 -5 -18z"/>
<path d="M2011 2767 c2 -1 13 -9 24 -17 19 -14 19 -14 6 3 -7 9 -18 17 -24 17
-6 0 -8 -1 -6 -3z"/>
<path d="M1075 2680 c21 -24 26 -25 19 -6 -4 11 4 16 28 19 25 3 22 4 -16 5
-48 2 -49 2 -31 -18z"/>
<path d="M1758 2693 l32 -4 -21 -32 -22 -32 36 34 c21 19 37 36 37 38 0 2 -21
2 -47 1 -37 -1 -41 -2 -15 -5z"/>
<path d="M1279 2653 c20 -21 45 -49 54 -63 10 -14 15 -18 11 -10 -17 36 -77
110 -89 110 -7 0 4 -17 24 -37z"/>
<path d="M1545 2635 c-21 -31 -35 -58 -31 -62 3 -3 6 -2 6 4 0 6 18 33 41 62
22 28 37 51 32 51 -6 0 -27 -25 -48 -55z"/>
<path d="M1150 2571 c0 -6 4 -13 10 -16 6 -3 7 1 4 9 -7 18 -14 21 -14 7z"/>
<path d="M1176 2517 c3 -10 9 -15 12 -12 3 3 0 11 -7 18 -10 9 -11 8 -5 -6z"/>
<path d="M1738 2483 c12 -2 32 -2 45 0 12 2 2 4 -23 4 -25 0 -35 -2 -22 -4z"/>
<path d="M1610 2210 c-9 -6 -10 -10 -3 -10 6 0 15 5 18 10 8 12 4 12 -15 0z"/>
<path d="M1277 2199 c7 -7 15 -10 18 -7 3 3 -2 9 -12 12 -14 6 -15 5 -6 -5z"/>
<path d="M1348 2183 c12 -2 30 -2 40 0 9 3 -1 5 -23 4 -22 0 -30 -2 -17 -4z"/>
<path d="M1493 2183 c15 -2 39 -2 55 0 15 2 2 4 -28 4 -30 0 -43 -2 -27 -4z"/>
<path d="M1616 2027 c-11 -8 -17 -18 -15 -23 2 -5 14 1 26 14 24 24 17 30 -11
9z"/>
<path d="M1259 1998 c4 -28 6 -29 9 -9 2 13 0 27 -5 32 -6 6 -7 -3 -4 -23z"/>
<path d="M1361 1999 c7 -4 10 -25 7 -48 -2 -28 0 -41 9 -41 7 0 10 7 7 15 -4
8 -3 26 0 40 6 22 12 25 50 25 38 0 45 -3 49 -22 4 -20 4 -20 6 4 1 19 7 28
24 30 12 2 -19 4 -70 4 -51 0 -87 -3 -82 -7z"/>
<path d="M1245 1950 c-3 -5 -1 -10 4 -10 6 0 11 5 11 10 0 6 -2 10 -4 10 -3 0
-8 -4 -11 -10z"/>
<path d="M1480 1920 c0 -5 5 -10 11 -10 5 0 7 5 4 10 -3 6 -8 10 -11 10 -2 0
-4 -4 -4 -10z"/>
<path d="M1428 1903 c6 -2 18 -2 25 0 6 3 1 5 -13 5 -14 0 -19 -2 -12 -5z"/>
<path d="M1700 1740 c-9 -6 -10 -10 -3 -10 6 0 15 5 18 10 8 12 4 12 -15 0z"/>
<path d="M1204 1696 c-3 -19 -4 -41 -1 -48 3 -7 6 -3 6 10 1 13 6 32 11 42 6
12 7 21 1 25 -6 3 -13 -10 -17 -29z"/>
<path d="M1653 1722 c-8 -5 -8 -21 3 -62 l14 -55 -6 54 c-5 39 -3 56 7 62 8 5
10 9 4 9 -5 0 -15 -4 -22 -8z"/>
<path d="M1335 1668 c-21 -121 -33 -244 -25 -252 7 -7 10 4 10 28 0 21 8 85
17 142 l16 103 31 4 c29 4 28 4 -6 5 -34 2 -38 0 -43 -30z"/>
<path d="M1489 1693 c18 -4 22 -10 18 -29 -2 -13 -1 -24 3 -24 4 0 7 -6 7 -12
0 -7 6 -55 12 -106 6 -51 9 -97 6 -103 -4 -5 -1 -9 4 -9 14 0 13 34 -2 175
l-12 110 -30 2 c-22 1 -24 0 -6 -4z"/>
<path d="M1192 1610 c0 -14 2 -19 5 -12 2 6 2 18 0 25 -3 6 -5 1 -5 -13z"/>
<path d="M1677 1545 c3 -27 7 -52 9 -54 7 -8 2 54 -6 79 -6 17 -7 9 -3 -25z"/>
<path d="M1181 1544 c0 -11 3 -14 6 -6 3 7 2 16 -1 19 -3 4 -6 -2 -5 -13z"/>
<path d="M1172 1500 c0 -14 2 -19 5 -12 2 6 2 18 0 25 -3 6 -5 1 -5 -13z"/>
<path d="M1091 1450 c-1 -14 -12 -61 -26 -105 -29 -92 -31 -116 -8 -65 19 41
16 32 32 100 7 31 11 65 8 75 -4 16 -5 15 -6 -5z"/>
<path d="M1692 1450 c0 -14 2 -19 5 -12 2 6 2 18 0 25 -3 6 -5 1 -5 -13z"/>
<path d="M1776 1400 c4 -25 7 -59 8 -77 0 -17 5 -31 10 -30 4 1 14 -16 21 -38
25 -78 14 -18 -15 85 -17 58 -27 85 -24 60z"/>
<path d="M1152 1395 c0 -16 2 -22 5 -12 2 9 2 23 0 30 -3 6 -5 -1 -5 -18z"/>
<path d="M1702 1400 c0 -14 4 -36 8 -50 6 -20 8 -21 8 -5 0 11 -4 34 -8 50 -7
27 -8 27 -8 5z"/>
<path d="M1268 1363 c7 -3 16 -2 19 1 4 3 -2 6 -13 5 -11 0 -14 -3 -6 -6z"/>
<path d="M1348 1353 c12 -2 32 -2 45 0 12 2 2 4 -23 4 -25 0 -35 -2 -22 -4z"/>
<path d="M1493 1353 c20 -2 54 -2 75 0 20 2 3 4 -38 4 -41 0 -58 -2 -37 -4z"/>
<path d="M1130 1306 c0 -8 -5 -16 -12 -18 -8 -3 -7 -6 3 -10 10 -4 15 1 17 18
1 13 0 24 -3 24 -3 0 -5 -6 -5 -14z"/>
<path d="M1718 1291 c-5 -32 -1 -36 18 -23 7 5 7 14 -2 30 -11 23 -12 23 -16
-7z"/>
<path d="M967 1252 c-19 -53 -20 -62 -9 -62 9 0 37 99 30 105 -2 3 -12 -17
-21 -43z"/>
<path d="M1885 1254 c3 -20 11 -48 18 -63 l11 -26 3 25 c4 25 -21 100 -33 100
-4 0 -3 -16 1 -36z"/>
<path d="M1021 1194 c0 -11 3 -14 6 -6 3 7 2 16 -1 19 -3 4 -6 -2 -5 -13z"/>
<path d="M1831 1200 c0 -8 4 -24 9 -35 5 -13 9 -14 9 -5 0 8 -4 24 -9 35 -5
13 -9 14 -9 5z"/>
<path d="M1003 1155 c-6 -6 -8 -18 -3 -24 5 -9 9 -5 13 10 7 28 6 31 -10 14z"/>
<path d="M1254 1143 c-3 -16 -10 -43 -15 -62 -5 -19 -7 -36 -6 -38 2 -1 30 -5
63 -7 32 -3 51 -3 40 0 -16 5 -18 13 -13 60 6 58 6 58 -35 68 -24 5 -28 3 -34
-21z"/>
<path d="M1520 1095 l0 -65 39 0 c22 0 42 4 45 9 3 5 1 34 -5 65 -11 55 -13
56 -45 56 l-34 0 0 -65z"/>
<path d="M1851 1128 c0 -7 5 -22 10 -33 8 -17 9 -16 4 7 -3 16 0 28 8 31 7 3
5 6 -5 6 -10 1 -18 -5 -17 -11z"/>
<path d="M986 1084 c-4 -14 -5 -28 -3 -31 3 -2 8 8 11 23 4 14 5 28 3 31 -3 2
-8 -8 -11 -23z"/>
<path d="M1871 1054 c0 -11 3 -14 6 -6 3 7 2 16 -1 19 -3 4 -6 -2 -5 -13z"/>
<path d="M971 1033 c-1 -6 -4 -20 -7 -30 -5 -17 -5 -17 6 0 6 10 9 23 6 30 -3
9 -5 9 -5 0z"/>
<path d="M1881 1014 c0 -11 3 -14 6 -6 3 7 2 16 -1 19 -3 4 -6 -2 -5 -13z"/>
<path d="M780 794 c1 -45 6 -76 15 -88 14 -18 15 -13 15 56 0 55 -4 79 -15 88
-13 11 -15 4 -15 -56z"/>
<path d="M894 755 c0 -49 1 -71 3 -48 2 23 2 64 0 90 -2 26 -3 8 -3 -42z"/>
<path d="M2068 823 c-14 -15 -18 -37 -18 -89 l0 -68 20 20 c18 17 21 31 18 88
-3 66 -4 68 -20 49z"/>
<path d="M1952 738 c-1 -53 1 -99 6 -101 4 -3 6 27 4 66 -4 122 -9 136 -10 35z"/>
<path d="M1050 613 c0 -38 4 -73 8 -79 7 -10 65 -34 84 -34 5 0 8 34 6 76 l-3
77 -45 13 c-25 8 -46 14 -47 14 -2 0 -3 -30 -3 -67z"/>
<path d="M1713 649 l-33 -10 0 -78 0 -79 48 17 47 17 3 72 c3 80 2 80 -65 61z"/>
</g>
</svg>
