<?xml version="1.0" standalone="no"?>
<!DOCTYPE svg PUBLIC "-//W3C//DTD SVG 20010904//EN"
 "http://www.w3.org/TR/2001/REC-SVG-20010904/DTD/svg10.dtd">
<svg version="1.0" xmlns="http://www.w3.org/2000/svg"
 width="284.000000pt" height="597.000000pt" viewBox="0 0 284.000000 597.000000"
 preserveAspectRatio="xMidYMid meet">

<g transform="translate(0.000000,597.000000) scale(0.100000,-0.100000)"
fill="#000000" stroke="none">
<path d="M1829 5508 c-3 -20 -1 -34 3 -32 4 3 8 10 8 16 0 6 8 21 18 32 14 17
14 19 0 8 -13 -10 -17 -10 -21 0 -2 7 -6 -4 -8 -24z"/>
<path d="M1056 5485 c4 -8 8 -15 10 -15 2 0 4 7 4 15 0 8 -4 15 -10 15 -5 0
-7 -7 -4 -15z"/>
<path d="M2108 5433 c7 -3 16 -2 19 1 4 3 -2 6 -13 5 -11 0 -14 -3 -6 -6z"/>
<path d="M1203 5365 c0 -22 2 -30 4 -17 2 12 2 30 0 40 -3 9 -5 -1 -4 -23z"/>
<path d="M1395 5390 c-11 -4 -33 -22 -49 -38 -79 -84 -15 -232 101 -232 44 0
94 28 119 66 24 36 23 111 -1 152 -31 52 -111 77 -170 52z m121 -38 c96 -78
18 -233 -101 -201 -48 14 -75 52 -75 109 0 41 5 53 31 79 25 26 38 31 77 31
29 0 55 -7 68 -18z"/>
<path d="M1320 5125 c19 -19 36 -35 39 -35 3 0 -10 16 -29 35 -19 19 -36 35
-39 35 -3 0 10 -16 29 -35z"/>
<path d="M1378 5083 c7 -3 16 -2 19 1 4 3 -2 6 -13 5 -11 0 -14 -3 -6 -6z"/>
<path d="M1498 5083 c7 -3 16 -2 19 1 4 3 -2 6 -13 5 -11 0 -14 -3 -6 -6z"/>
<path d="M1418 5073 c7 -3 16 -2 19 1 4 3 -2 6 -13 5 -11 0 -14 -3 -6 -6z"/>
<path d="M1413 5013 c17 -24 33 -43 35 -43 5 0 16 13 51 61 l20 25 -69 0 -68
-1 31 -42z"/>
<path d="M1257 4929 c7 -7 15 -10 18 -7 3 3 -2 9 -12 12 -14 6 -15 5 -6 -5z"/>
<path d="M1603 4925 c4 -5 -5 -21 -20 -37 -15 -15 -24 -28 -22 -28 3 0 18 13
33 29 21 22 25 31 14 37 -7 4 -10 3 -5 -1z"/>
<path d="M1414 4893 c11 -13 24 -23 31 -23 7 0 20 10 31 23 19 22 19 22 -2 5
-11 -10 -24 -18 -29 -18 -5 0 -18 8 -29 18 -21 17 -21 17 -2 -5z"/>
<path d="M1320 4876 c0 -2 8 -10 18 -17 15 -13 16 -12 3 4 -13 16 -21 21 -21
13z"/>
<path d="M1071 4824 c0 -11 3 -14 6 -6 3 7 2 16 -1 19 -3 4 -6 -2 -5 -13z"/>
<path d="M1805 4809 c-5 -20 -16 -34 -33 -40 -61 -24 -96 -44 -142 -86 -47
-42 -56 -63 -27 -63 8 0 8 3 -1 9 -25 15 84 99 151 115 35 8 62 -6 110 -58 36
-39 35 -38 -8 24 -40 55 -46 69 -40 97 8 42 -1 44 -10 2z"/>
<path d="M1081 4784 c-1 -12 -22 -50 -47 -85 l-45 -64 50 53 c37 38 58 52 78
52 40 0 122 -41 167 -84 22 -20 41 -35 43 -32 2 2 -17 22 -43 45 -47 41 -139
91 -169 91 -8 0 -20 10 -25 23 -9 22 -9 22 -9 1z"/>
<path d="M1437 4729 c7 -7 15 -10 18 -7 3 3 -2 9 -12 12 -14 6 -15 5 -6 -5z"/>
<path d="M1920 4606 c0 -2 8 -10 18 -17 15 -13 16 -12 3 4 -13 16 -21 21 -21
13z"/>
<path d="M1818 4543 c6 -10 22 -29 37 -43 36 -33 85 -112 113 -179 24 -58 28
-86 12 -76 -6 3 -2 -9 9 -27 10 -18 29 -75 41 -127 20 -81 22 -109 16 -203 -6
-98 -11 -122 -48 -212 -84 -203 -255 -342 -467 -380 -87 -16 -100 -16 -195 0
-86 14 -115 24 -195 68 -79 43 -105 64 -164 132 -57 67 -78 100 -110 180 -33
83 -40 116 -47 204 -6 94 -4 116 18 210 20 81 36 120 69 173 25 37 46 77 48
88 5 25 59 112 81 130 8 7 25 26 36 42 l22 30 -43 -24 c-78 -44 -156 -114
-198 -179 -23 -36 -47 -71 -53 -78 -34 -39 -48 -248 -27 -402 13 -92 21 -119
67 -210 152 -304 423 -444 745 -386 113 20 244 99 340 205 104 115 170 252
192 396 21 143 3 415 -27 415 -4 0 -26 31 -48 68 -41 68 -91 115 -190 176 -34
21 -41 23 -34 9z"/>
<path d="M1307 4465 c-90 -25 -160 -67 -233 -139 -119 -119 -173 -263 -161
-429 14 -181 96 -329 235 -420 96 -64 148 -80 272 -83 87 -2 95 -1 45 5 -58 8
-134 25 -165 38 -8 4 10 10 40 14 30 3 68 12 85 19 l30 11 -52 18 c-123 42
-193 135 -193 257 l0 54 33 -20 c46 -28 83 -26 118 9 29 29 34 50 30 121 -5
88 -81 154 -176 153 -60 0 -101 -20 -142 -67 -46 -52 -58 -97 -58 -218 0 -119
-4 -121 -48 -33 -39 76 -51 161 -37 263 13 97 41 161 94 211 19 19 33 38 31
42 -8 13 112 114 167 141 29 14 77 31 106 37 67 14 155 15 147 1 -3 -5 -17
-10 -31 -10 -13 0 -33 -9 -44 -20 -12 -12 -20 -15 -20 -7 0 8 -3 9 -8 1 -4 -6
-15 -10 -25 -8 -13 2 -17 -2 -12 -14 5 -13 2 -12 -15 3 -20 19 -21 19 -14 -1
7 -16 6 -17 -8 -6 -14 11 -19 9 -32 -10 -9 -12 -16 -17 -16 -10 0 10 -4 9 -16
-2 -8 -9 -20 -14 -25 -11 -5 4 -6 -1 -3 -9 3 -8 -3 -19 -15 -25 -17 -10 -19
-8 -16 9 2 12 0 18 -6 15 -5 -4 -7 -10 -5 -14 3 -4 1 -13 -5 -21 -7 -12 -9
-11 -9 5 0 15 -3 17 -9 7 -4 -8 -10 -12 -12 -10 -2 1 -20 -7 -39 -19 -19 -13
-30 -23 -25 -23 6 0 16 5 23 12 16 16 15 7 -4 -31 -9 -18 -18 -51 -21 -74 l-6
-42 34 32 c48 45 134 83 191 83 49 0 125 -27 146 -53 11 -13 9 -18 -17 -33
-16 -9 -34 -28 -40 -41 -21 -46 -9 -108 21 -108 7 0 13 -7 13 -15 0 -27 65
-52 119 -46 94 10 157 78 164 177 8 115 -51 198 -187 262 -60 28 -63 31 -40
40 28 10 127 3 181 -13 101 -30 219 -161 258 -287 27 -86 26 -122 -1 -68 -18
37 -66 95 -78 95 -3 0 -6 -44 -6 -98 0 -123 -24 -179 -99 -229 -58 -39 -75
-42 -69 -10 7 36 -22 96 -53 107 -64 25 -147 -18 -184 -95 -62 -129 54 -287
201 -273 59 6 184 66 184 88 0 9 10 15 23 16 12 1 22 0 22 -1 0 -16 -47 -99
-74 -131 -35 -41 -124 -95 -199 -119 -38 -13 -39 -14 -7 -9 68 11 163 67 230
134 67 67 115 146 145 238 20 64 23 234 5 302 -37 136 -158 290 -270 343 -117
55 -256 71 -363 42z m313 -335 c0 -5 -4 -10 -10 -10 -5 0 -10 5 -10 10 0 6 5
10 10 10 6 0 10 -4 10 -10z m-193 -45 c19 -20 14 -26 -15 -18 -12 3 -22 12
-22 19 0 19 18 18 37 -1z m448 -25 c-3 -5 -2 -10 3 -10 5 0 17 -18 27 -40 10
-22 21 -38 24 -36 14 9 11 -129 -4 -182 -15 -49 -60 -152 -68 -152 -2 0 -1 16
1 35 3 22 0 35 -7 35 -7 0 -10 -4 -7 -9 3 -5 -1 -11 -9 -15 -8 -3 -17 0 -21 6
-5 7 -2 8 6 3 10 -6 12 -4 7 8 -4 12 -1 17 11 17 15 0 15 2 2 10 -12 8 -12 10
5 11 11 0 15 3 9 5 -8 3 -7 16 3 45 9 28 10 45 3 53 -7 9 -6 13 5 13 8 0 11
-5 8 -10 -3 -6 -1 -7 6 -3 9 6 9 11 1 21 -8 9 -6 17 5 29 9 9 13 16 8 16 -5 0
-9 11 -9 25 0 14 5 25 11 25 5 0 4 4 -4 9 -8 5 -16 18 -17 28 -1 10 -5 30 -8
46 -4 16 -2 27 4 27 6 0 8 -4 5 -10z m-295 -30 c0 -13 -33 -21 -43 -11 -16 16
12 44 29 30 8 -6 14 -15 14 -19z m-233 -102 c-3 -8 -6 -5 -6 6 -1 11 2 17 5
13 3 -3 4 -12 1 -19z m-127 -19 c0 -5 -4 -9 -10 -9 -5 0 -10 7 -10 16 0 8 5
12 10 9 6 -3 10 -10 10 -16z m105 -19 c3 -5 -1 -10 -9 -10 -9 0 -16 5 -16 10
0 6 4 10 9 10 6 0 13 -4 16 -10z m205 -60 c0 -5 -4 -10 -9 -10 -6 0 -13 5 -16
10 -3 6 1 10 9 10 9 0 16 -4 16 -10z m-50 -119 c0 -6 -4 -13 -10 -16 -5 -3
-10 1 -10 9 0 9 5 16 10 16 6 0 10 -4 10 -9z m158 -15 c3 -12 -1 -17 -10 -14
-7 3 -15 13 -16 22 -3 12 1 17 10 14 7 -3 15 -13 16 -22z m-543 -36 c-3 -5
-11 -10 -16 -10 -6 0 -7 5 -4 10 3 6 11 10 16 10 6 0 7 -4 4 -10z m-31 -33
c-4 11 1 8 12 -7 27 -38 41 -50 48 -43 3 4 6 -1 6 -10 0 -9 5 -19 12 -23 7 -5
9 -2 4 7 -4 8 0 5 8 -5 9 -11 16 -16 16 -12 0 4 12 -6 26 -21 15 -15 20 -19
13 -8 -13 19 -13 19 7 2 11 -9 23 -15 25 -13 2 3 15 -4 29 -15 14 -11 18 -18
10 -17 -8 2 -18 8 -22 13 -5 6 -8 4 -8 -5 0 -9 5 -21 12 -28 20 -20 -8 -15
-60 12 -57 29 -135 96 -174 150 -38 52 -35 64 7 32 27 -21 33 -23 29 -9z"/>
<path d="M2101 3506 c-9 -11 -9 -16 1 -22 7 -4 10 -4 6 1 -4 4 -3 14 3 22 6 7
9 13 6 13 -2 0 -10 -6 -16 -14z"/>
<path d="M845 3460 c10 -11 20 -20 23 -20 3 0 -3 9 -13 20 -10 11 -20 20 -23
20 -3 0 3 -9 13 -20z"/>
<path d="M2049 3463 c-13 -16 -12 -17 4 -4 9 7 17 15 17 17 0 8 -8 3 -21 -13z"/>
<path d="M918 3399 c19 -21 33 -46 33 -64 1 -24 3 -25 6 -7 2 12 8 22 12 22 5
0 40 -18 79 -41 39 -23 77 -39 83 -37 7 2 -29 26 -80 52 -50 26 -109 61 -129
79 l-37 31 33 -35z"/>
<path d="M1970 3400 c-19 -16 -71 -48 -115 -71 -83 -42 -108 -59 -88 -59 6 0
43 19 83 41 72 42 84 42 93 4 2 -11 3 -6 2 10 -2 23 6 39 33 68 43 44 40 47
-8 7z"/>
<path d="M1144 3168 l-19 -23 23 19 c21 18 27 26 19 26 -2 0 -12 -10 -23 -22z"/>
<path d="M1720 3180 c20 -13 33 -13 25 0 -3 6 -14 10 -23 10 -15 0 -15 -2 -2
-10z"/>
<path d="M1770 3137 l25 -29 -44 -37 -45 -38 49 -59 c64 -77 69 -83 57 -59 -6
11 -29 43 -51 70 l-39 50 41 37 42 37 -30 28 -29 28 24 -28z"/>
<path d="M1104 3119 c-3 -6 10 -28 30 -48 l37 -37 -37 -50 -36 -49 45 50 46
50 -40 34 c-23 19 -38 39 -35 47 6 17 0 19 -10 3z"/>
<path d="M1531 2983 c0 -62 2 -113 7 -113 4 0 6 18 4 40 -2 22 -1 56 2 75 l7
35 62 2 62 1 -65 6 c-62 6 -65 7 -71 36 -4 17 -7 -21 -8 -82z"/>
<path d="M1253 3023 c15 -2 39 -2 55 0 15 2 2 4 -28 4 -30 0 -43 -2 -27 -4z"/>
<path d="M1080 2915 c-7 -9 -8 -15 -2 -15 5 0 12 7 16 15 3 8 4 15 2 15 -2 0
-9 -7 -16 -15z"/>
<path d="M1522 2825 c0 -16 2 -22 5 -12 2 9 2 23 0 30 -3 6 -5 -1 -5 -18z"/>
<path d="M2021 2757 c2 -1 13 -9 24 -17 19 -14 19 -14 6 3 -7 9 -18 17 -24 17
-6 0 -8 -1 -6 -3z"/>
<path d="M1102 2654 c57 -60 103 -171 131 -317 13 -71 29 -133 34 -138 31 -31
274 -42 337 -15 37 15 40 21 56 111 5 33 13 71 16 85 3 14 8 41 11 60 9 52 70
170 112 214 l36 39 -70 -7 c-38 -3 -93 -6 -121 -6 -50 0 -51 -1 -86 -52 -20
-29 -39 -71 -43 -93 -3 -22 -11 -57 -17 -77 -11 -38 -11 -38 -65 -38 l-53 0 0
33 c0 52 -27 125 -66 178 -31 43 -40 49 -72 49 -21 0 -68 3 -107 6 l-70 7 37
-39z"/>
<path d="M1748 2473 c12 -2 32 -2 45 0 12 2 2 4 -23 4 -25 0 -35 -2 -22 -4z"/>
<path d="M1238 1989 c-3 -30 0 -43 13 -50 13 -7 18 -3 23 23 9 44 8 46 -13 57
-17 10 -19 6 -23 -30z"/>
<path d="M1627 2018 c-14 -11 -15 -21 -9 -56 7 -40 8 -42 27 -28 14 9 20 24
19 43 -1 15 -3 34 -3 41 -1 6 -5 12 -9 12 -5 0 -16 -6 -25 -12z"/>
<path d="M1371 1989 c7 -4 10 -25 7 -47 -3 -39 -2 -41 29 -47 18 -3 48 -3 66
0 33 6 33 8 30 50 -4 39 -2 44 19 47 13 2 -18 4 -69 4 -51 0 -88 -3 -82 -7z"/>
<path d="M1169 1727 c0 -7 -2 -20 -4 -29 -2 -12 2 -15 13 -11 10 4 13 2 8 -5
-4 -7 -1 -12 9 -12 9 0 14 -4 10 -9 -3 -5 -1 -12 4 -15 5 -4 12 7 16 24 9 42
9 42 -24 56 -24 10 -31 10 -32 1z"/>
<path d="M1687 1721 c-26 -9 -36 -19 -32 -28 3 -8 8 -32 11 -54 8 -46 21 -53
18 -9 -1 17 5 35 14 42 13 11 14 11 7 -2 -5 -9 0 -8 13 4 15 13 22 15 22 6 0
-7 2 -11 5 -8 3 3 0 18 -7 35 -13 29 -13 29 -51 14z"/>
<path d="M1345 1666 c-2 -11 -6 -41 -9 -66 -3 -25 -9 -70 -13 -100 -10 -84 -9
-93 7 -98 12 -4 13 -2 4 9 -8 10 -7 34 2 89 8 41 15 84 17 95 3 17 13 19 85
21 45 0 83 -2 83 -5 13 -58 26 -154 25 -182 -1 -16 2 -29 7 -29 10 0 9 32 -3
148 -16 151 -5 138 -110 139 -84 1 -90 -1 -95 -21z"/>
<path d="M1202 1600 c0 -19 2 -27 5 -17 2 9 2 25 0 35 -3 9 -5 1 -5 -18z"/>
<path d="M1682 1575 c-1 -11 3 -38 7 -60 7 -34 9 -35 9 -10 0 35 -15 101 -16
70z"/>
<path d="M1191 1544 c0 -11 3 -14 6 -6 3 7 2 16 -1 19 -3 4 -6 -2 -5 -13z"/>
<path d="M1184 1505 c-3 -8 -4 -20 -2 -27 3 -7 7 -1 10 15 6 29 1 36 -8 12z"/>
<path d="M1789 1449 c-6 -13 -8 -36 -4 -58 3 -20 7 -52 8 -73 1 -20 6 -36 11
-35 4 1 14 -16 21 -38 23 -71 16 -24 -11 77 -22 80 -25 103 -16 123 14 30 7
33 -9 4z"/>
<path d="M1701 1434 c0 -11 3 -14 6 -6 3 7 2 16 -1 19 -3 4 -6 -2 -5 -13z"/>
<path d="M1076 1341 c-15 -51 -25 -95 -23 -97 7 -7 59 164 55 177 -2 7 -16
-30 -32 -80z"/>
<path d="M1164 1406 c-3 -8 -4 -23 -2 -33 3 -11 6 -6 9 15 6 34 2 42 -7 18z"/>
<path d="M1712 1385 c0 -16 2 -22 5 -12 2 9 2 23 0 30 -3 6 -5 -1 -5 -18z"/>
<path d="M1388 1393 c23 -2 59 -2 80 0 20 2 1 4 -43 4 -44 0 -61 -2 -37 -4z"/>
<path d="M1278 1353 c7 -3 16 -2 19 1 4 3 -2 6 -13 5 -11 0 -14 -3 -6 -6z"/>
<path d="M1358 1343 c12 -2 32 -2 45 0 12 2 2 4 -23 4 -25 0 -35 -2 -22 -4z"/>
<path d="M1498 1343 c17 -2 47 -2 65 0 17 2 3 4 -33 4 -36 0 -50 -2 -32 -4z"/>
<path d="M1721 1334 c0 -11 3 -14 6 -6 3 7 2 16 -1 19 -3 4 -6 -2 -5 -13z"/>
<path d="M1141 1301 c-1 -17 -5 -22 -18 -17 -15 5 -14 3 2 -9 18 -14 20 -14
23 -1 2 9 1 24 -1 34 -3 12 -5 10 -6 -7z"/>
<path d="M1728 1281 c-5 -32 -1 -36 18 -23 7 5 7 14 -2 30 -11 23 -12 23 -16
-7z"/>
<path d="M977 1242 c-19 -53 -20 -62 -9 -62 9 0 37 99 30 105 -2 3 -12 -17
-21 -43z"/>
<path d="M1895 1244 c3 -20 11 -48 18 -63 l11 -26 3 25 c4 25 -21 100 -33 100
-4 0 -3 -16 1 -36z"/>
<path d="M1031 1184 c0 -11 3 -14 6 -6 3 7 2 16 -1 19 -3 4 -6 -2 -5 -13z"/>
<path d="M1841 1190 c0 -8 4 -24 9 -35 5 -13 9 -14 9 -5 0 8 -4 24 -9 35 -5
13 -9 14 -9 5z"/>
<path d="M1013 1145 c-6 -6 -8 -18 -3 -24 5 -9 9 -5 13 10 7 28 6 31 -10 14z"/>
<path d="M1264 1133 c-3 -16 -10 -43 -15 -62 -5 -19 -7 -36 -6 -38 2 -1 30 -5
63 -7 32 -3 51 -3 40 0 -16 5 -18 13 -13 60 6 58 6 58 -35 68 -24 5 -28 3 -34
-21z"/>
<path d="M1530 1085 l0 -65 39 0 c22 0 42 4 45 9 3 5 1 34 -5 65 -11 55 -13
56 -45 56 l-34 0 0 -65z"/>
<path d="M1861 1118 c0 -7 5 -22 10 -33 8 -17 9 -16 4 7 -3 16 0 28 8 31 7 3
5 6 -5 6 -10 1 -18 -5 -17 -11z"/>
<path d="M996 1074 c-4 -14 -5 -28 -3 -31 3 -2 8 8 11 23 4 14 5 28 3 31 -3 2
-8 -8 -11 -23z"/>
<path d="M1881 1044 c0 -11 3 -14 6 -6 3 7 2 16 -1 19 -3 4 -6 -2 -5 -13z"/>
<path d="M981 1023 c-1 -6 -4 -20 -7 -30 -5 -17 -5 -17 6 0 6 10 9 23 6 30 -3
9 -5 9 -5 0z"/>
<path d="M1891 1004 c0 -11 3 -14 6 -6 3 7 2 16 -1 19 -3 4 -6 -2 -5 -13z"/>
<path d="M790 784 c1 -45 6 -76 15 -88 14 -18 15 -13 15 56 0 55 -4 79 -15 88
-13 11 -15 4 -15 -56z"/>
<path d="M904 740 c0 -52 1 -74 3 -47 2 26 2 68 0 95 -2 26 -3 4 -3 -48z"/>
<path d="M2078 813 c-14 -15 -18 -37 -18 -89 l0 -68 20 20 c18 17 21 31 18 88
-3 66 -4 68 -20 49z"/>
<path d="M1962 728 c-1 -53 1 -99 6 -101 4 -3 6 27 4 66 -4 122 -9 136 -10 35z"/>
<path d="M1060 603 c0 -38 4 -73 8 -79 7 -10 65 -34 84 -34 5 0 8 34 6 76 l-3
77 -45 13 c-25 8 -46 14 -47 14 -2 0 -3 -30 -3 -67z"/>
<path d="M1723 639 l-33 -10 0 -78 0 -78 50 16 50 15 0 73 c0 80 -1 81 -67 62z"/>
</g>
</svg>
