<?xml version="1.0" standalone="no"?>
<!DOCTYPE svg PUBLIC "-//W3C//DTD SVG 20010904//EN"
 "http://www.w3.org/TR/2001/REC-SVG-20010904/DTD/svg10.dtd">
<svg version="1.0" xmlns="http://www.w3.org/2000/svg"
 width="284.000000pt" height="597.000000pt" viewBox="0 0 284.000000 597.000000"
 preserveAspectRatio="xMidYMid meet">

<g transform="translate(0.000000,597.000000) scale(0.100000,-0.100000)"
fill="#000000" stroke="none">
<path d="M1434 5296 c-3 -8 -4 -29 -2 -48 3 -30 6 -33 39 -36 36 -3 37 -3 41
38 3 32 0 44 -14 51 -25 13 -58 11 -64 -5z"/>
<path d="M1938 5185 c-23 -30 -23 -61 -2 -69 23 -9 26 -4 22 47 l-3 45 -17
-23z"/>
<path d="M980 5151 c0 -23 5 -41 10 -41 6 0 10 15 10 34 0 19 -4 38 -10 41 -6
4 -10 -10 -10 -34z"/>
<path d="M1285 4910 c-208 -15 -358 -52 -371 -92 -12 -39 67 -86 123 -72 24 6
32 39 11 46 -6 2 24 18 68 36 121 47 305 64 490 45 100 -11 153 -21 189 -38
28 -12 59 -25 71 -29 16 -5 20 -12 16 -31 -6 -36 35 -43 93 -15 70 34 61 67
-25 99 -120 44 -430 68 -665 51z"/>
<path d="M1440 4596 c-19 -6 -40 -22 -47 -36 -15 -30 -17 -120 -3 -120 6 0 10
26 10 59 0 64 9 77 56 87 21 4 37 0 57 -16 24 -19 27 -28 27 -83 0 -35 4 -57
8 -49 11 17 3 114 -11 130 -24 30 -60 40 -97 28z"/>
<path d="M1005 4590 c-3 -6 1 -7 9 -4 18 7 21 14 7 14 -6 0 -13 -4 -16 -10z"/>
<path d="M1040 4561 c0 -11 -6 -22 -12 -24 -7 -3 -1 -6 15 -6 22 -1 27 3 27
24 0 16 -6 25 -15 25 -8 0 -15 -9 -15 -19z"/>
<path d="M1856 4564 c-9 -24 2 -34 37 -33 18 1 24 3 15 6 -10 2 -18 13 -18 24
0 23 -25 25 -34 3z"/>
<path d="M1295 4320 c-48 -5 -50 -6 -55 -40 -5 -33 -8 -36 -52 -44 -27 -5 -48
-14 -48 -19 0 -5 14 -7 31 -3 17 3 42 6 55 6 20 0 23 6 26 43 l3 42 62 3 62 3
3 -37 3 -37 85 0 85 0 3 37 3 36 60 0 59 0 0 -39 c0 -22 3 -42 8 -44 17 -10
102 -18 102 -9 0 5 -21 13 -47 18 -45 8 -48 11 -49 42 -1 18 -3 34 -5 36 -2 2
-35 5 -74 7 l-70 4 -3 -32 -3 -33 -69 0 -69 0 -3 33 c-3 36 -9 37 -103 27z"/>
<path d="M903 4038 c4 -46 8 -99 9 -118 1 -19 4 15 7 75 l6 110 118 3 117 3 0
-66 0 -65 65 0 65 0 1 43 c1 23 4 32 6 19 l5 -23 162 3 c162 3 186 -1 186 -32
0 -6 27 -10 65 -10 l65 0 0 65 0 65 120 0 120 0 0 -110 c0 -67 4 -110 10 -110
6 0 10 45 10 115 l0 115 -571 0 -572 0 6 -82z"/>
<path d="M930 3879 c0 -5 -4 -7 -10 -4 -7 4 -10 -145 -10 -439 0 -350 3 -446
13 -446 6 0 66 -3 131 -7 88 -4 117 -3 112 6 -5 7 -47 11 -121 11 l-114 0 -3
110 -3 110 68 0 69 0 -4 78 c-3 76 -4 77 -31 80 -26 3 -27 5 -27 65 -1 34 -3
117 -7 185 l-6 122 32 0 31 0 0 70 0 70 -60 0 c-36 0 -60 -4 -60 -11z m11
-113 c12 -13 12 -399 0 -412 -5 -5 -11 -22 -14 -39 -2 -16 -4 89 -4 235 -1
146 1 256 4 245 3 -11 9 -24 14 -29z"/>
<path d="M1890 3820 c0 -56 3 -70 15 -70 13 0 15 -25 13 -187 -3 -172 -4 -188
-20 -187 -16 2 -18 -8 -18 -81 l0 -83 48 5 c26 2 56 5 68 7 18 2 21 -2 19 -28
-1 -17 -2 -68 -3 -113 l-2 -83 -115 0 -115 0 0 70 0 70 -65 0 -65 0 -1 -62
c-1 -59 -2 -61 -11 -30 l-11 32 -163 0 c-161 0 -163 0 -167 -22 -2 -13 -5 1
-6 30 l-1 52 -60 0 -60 0 0 -70 0 -70 304 0 c167 0 306 -4 308 -8 2 -4 58 -6
126 -4 l122 4 -2 412 c-2 392 -3 399 -8 149 -3 -144 -8 -265 -12 -269 -5 -4
-8 9 -8 30 0 23 -5 39 -15 42 -13 5 -15 37 -15 204 0 189 1 198 20 203 14 3
20 14 20 31 0 14 5 26 10 26 14 0 13 43 -2 58 -7 7 -38 12 -70 12 l-58 0 0
-70z"/>
<path d="M831 3777 c-20 -22 -21 -32 -18 -143 l3 -119 2 122 c1 67 5 124 10
126 4 3 6 -55 4 -129 -2 -95 -6 -132 -14 -128 -7 5 -8 2 -2 -7 4 -8 7 -46 5
-84 -2 -62 0 -73 20 -90 l22 -20 -8 40 c-9 47 -12 388 -3 428 8 33 7 33 -21 4z"/>
<path d="M2085 3555 c0 -170 3 -231 11 -224 10 8 10 318 0 411 -1 15 1 25 6
22 4 -3 9 -65 10 -137 l2 -132 4 120 c3 129 -1 160 -20 168 -10 3 -13 -45 -13
-228z"/>
<path d="M1621 3104 c0 -11 3 -14 6 -6 3 7 2 16 -1 19 -3 4 -6 -2 -5 -13z"/>
<path d="M1150 2932 c0 -5 20 -19 45 -32 24 -12 42 -26 40 -30 -12 -20 31 -32
116 -34 87 -2 92 -1 102 21 13 29 21 29 34 1 9 -21 17 -23 92 -23 44 0 81 3
81 8 0 4 3 6 8 6 20 -3 33 2 30 13 -3 7 18 27 46 45 l51 32 -322 1 c-178 0
-323 -4 -323 -8z"/>
<path d="M1436 2633 c-17 -27 -36 -58 -44 -70 -8 -13 -10 -23 -6 -23 5 0 24
23 42 50 17 28 36 50 41 50 9 0 71 -91 71 -104 0 -3 -16 -30 -36 -60 -40 -60
-39 -94 2 -116 13 -8 24 -18 24 -24 0 -13 59 -69 75 -72 6 -1 19 -5 30 -9 11
-4 -1 6 -26 23 -49 32 -84 72 -71 82 7 4 22 33 27 50 0 3 9 20 19 38 12 24 22
32 34 27 13 -5 14 -3 5 6 -19 19 -3 39 31 39 17 0 48 5 70 11 60 17 76 19 76
9 0 -11 -16 -52 -43 -108 -15 -32 -18 -45 -9 -54 14 -14 13 -16 51 60 17 34
37 62 45 62 11 0 10 8 -5 37 -24 47 -36 54 -68 37 -14 -8 -38 -14 -53 -14 -15
0 -39 -5 -55 -11 -15 -6 -41 -12 -57 -13 -18 -1 -34 -10 -45 -25 -30 -47 -52
-66 -25 -23 l28 44 -22 41 c-13 23 -35 57 -50 75 l-27 32 -29 -47z"/>
<path d="M1335 2659 c-4 -6 -5 -12 -2 -15 2 -3 7 2 10 11 7 17 1 20 -8 4z"/>
<path d="M1310 2610 c-6 -11 -8 -20 -6 -20 3 0 10 9 16 20 6 11 8 20 6 20 -3
0 -10 -9 -16 -20z"/>
<path d="M1123 2581 c-6 -3 -18 -21 -27 -39 -15 -29 -15 -35 -3 -45 8 -7 29
-38 46 -69 22 -39 36 -55 47 -51 12 4 11 10 -6 38 -11 18 -20 39 -20 47 0 8
-5 19 -12 26 -26 26 -15 60 17 52 73 -18 135 -25 135 -16 0 6 14 -12 31 -39
36 -59 117 -124 129 -105 4 7 0 20 -9 29 -9 9 -32 40 -51 69 -22 35 -42 54
-59 58 -14 3 -45 9 -68 15 -23 5 -52 9 -65 9 -13 0 -35 6 -49 14 -15 7 -31 11
-36 7z"/>
<path d="M1368 2312 c-18 -15 -46 -36 -61 -46 -16 -10 -27 -20 -24 -22 9 -10
73 30 100 62 35 41 29 44 -15 6z"/>
<path d="M1240 2240 c0 -7 -6 -10 -14 -7 -8 3 -21 -2 -28 -11 -19 -22 -60
-124 -53 -130 8 -8 19 6 49 62 30 54 51 78 60 69 3 -4 6 -1 6 5 0 6 -4 14 -10
17 -5 3 -10 1 -10 -5z"/>
<path d="M1675 2234 c10 -8 22 -14 26 -14 3 0 21 -29 38 -65 18 -36 38 -65 46
-65 11 0 11 4 0 28 -8 15 -23 48 -34 75 -11 26 -26 48 -33 48 -7 1 -24 3 -37
4 -23 2 -24 2 -6 -11z"/>
<path d="M979 1634 c-28 -33 -30 -43 -14 -73 11 -22 15 -62 15 -156 0 -124 6
-144 32 -106 15 21 95 63 156 81 44 14 45 15 45 95 0 8 -1 19 -2 24 -2 14 -86
-6 -140 -34 -28 -14 -55 -25 -60 -25 -6 0 -11 44 -13 106 -3 99 -4 105 -19 88z"/>
<path d="M1930 1547 c0 -67 -4 -107 -10 -107 -6 0 -33 11 -61 25 -27 14 -70
30 -94 34 l-45 8 0 -57 0 -57 43 -13 c60 -18 138 -59 157 -83 32 -39 40 -13
40 123 0 71 5 141 10 156 9 24 7 31 -15 53 l-25 26 0 -108z"/>
<path d="M1400 1266 c15 -15 115 -17 135 -2 14 10 3 12 -64 12 -56 0 -78 -3
-71 -10z"/>
<path d="M1443 1153 c15 -2 39 -2 55 0 15 2 2 4 -28 4 -30 0 -43 -2 -27 -4z"/>
<path d="M1600 1028 c-41 -5 -138 -6 -215 -2 -138 6 -140 6 -122 -13 10 -12
17 -36 17 -60 0 -40 0 -41 44 -47 60 -9 210 -9 279 -1 l57 7 0 41 c0 23 7 48
16 58 21 24 10 26 -76 17z"/>
<path d="M962 910 c0 -14 2 -19 5 -12 2 6 2 18 0 25 -3 6 -5 1 -5 -13z"/>
<path d="M1765 839 c-27 -9 -72 -18 -100 -18 -63 -2 -73 -8 -77 -51 -3 -34 -4
-35 -58 -41 -30 -3 -81 -4 -112 -1 l-58 5 0 37 c0 34 -3 38 -31 44 -17 3 -46
6 -63 6 -17 0 -53 7 -80 15 -66 20 -66 20 -66 -21 0 -29 -3 -34 -17 -30 -10 3
-31 8 -48 12 -16 4 -37 12 -45 18 -13 10 -13 9 -1 -6 7 -10 31 -23 53 -28 21
-6 46 -14 54 -17 11 -4 14 4 14 32 0 35 1 37 28 32 15 -3 61 -11 102 -18 41
-7 77 -14 80 -17 3 -2 5 -20 5 -40 l0 -37 63 -6 c34 -3 90 -3 125 0 l62 6 5
40 5 39 85 17 c47 9 92 18 100 20 11 3 16 -6 18 -33 l3 -37 46 14 c26 8 53 20
61 28 10 11 1 10 -40 -4 l-53 -18 -5 38 -5 38 -50 -18z"/>
<path d="M1949 833 c-13 -16 -12 -17 4 -4 16 13 21 21 13 21 -2 0 -10 -8 -17
-17z"/>
<path d="M845 740 c10 -11 20 -20 23 -20 3 0 -3 9 -13 20 -10 11 -20 20 -23
20 -3 0 3 -9 13 -20z"/>
<path d="M2034 708 l-19 -23 23 19 c21 18 27 26 19 26 -2 0 -12 -10 -23 -22z"/>
<path d="M884 712 c8 -13 66 -56 66 -49 0 3 -17 17 -37 33 -20 15 -33 23 -29
16z"/>
<path d="M961 656 c8 -8 210 -76 223 -75 6 0 -34 16 -89 35 -127 44 -141 48
-134 40z"/>
<path d="M1958 653 c7 -3 16 -2 19 1 4 3 -2 6 -13 5 -11 0 -14 -3 -6 -6z"/>
<path d="M1820 610 c-8 -5 -10 -10 -5 -10 6 0 17 5 25 10 8 5 11 10 5 10 -5 0
-17 -5 -25 -10z"/>
<path d="M1755 590 c-28 -7 -28 -8 -5 -9 14 0 32 4 40 9 17 11 8 11 -35 0z"/>
<path d="M1228 573 c12 -2 32 -2 45 0 12 2 2 4 -23 4 -25 0 -35 -2 -22 -4z"/>
<path d="M1653 573 c15 -2 37 -2 50 0 12 2 0 4 -28 4 -27 0 -38 -2 -22 -4z"/>
<path d="M1389 557 c45 -4 117 -5 160 0 66 7 56 8 -84 8 -146 1 -152 0 -76 -8z"/>
</g>
</svg>
