<?xml version="1.0" standalone="no"?>
<!DOCTYPE svg PUBLIC "-//W3C//DTD SVG 20010904//EN"
 "http://www.w3.org/TR/2001/REC-SVG-20010904/DTD/svg10.dtd">
<svg version="1.0" xmlns="http://www.w3.org/2000/svg"
 width="284.000000pt" height="597.000000pt" viewBox="0 0 284.000000 597.000000"
 preserveAspectRatio="xMidYMid meet">

<g transform="translate(0.000000,597.000000) scale(0.100000,-0.100000)"
fill="#000000" stroke="none">
<path d="M1381 5679 c-17 -17 -31 -37 -31 -45 0 -14 -14 -49 -57 -141 -15 -32
-14 -33 15 -58 19 -15 29 -32 25 -40 -6 -17 5 -19 27 -5 12 7 8 15 -23 44 -38
35 -38 35 -22 65 8 17 13 31 9 31 -4 0 -2 6 3 13 6 6 16 30 23 52 24 75 60
111 60 59 0 -14 4 -23 9 -20 4 3 6 17 3 31 -4 25 15 37 23 13 2 -7 19 -57 38
-111 33 -94 34 -123 0 -96 -13 11 -17 10 -28 -4 -6 -9 -15 -14 -19 -10 -3 4
-13 -2 -21 -13 -15 -18 -16 -18 -40 11 -18 22 -25 25 -25 13 0 -27 11 -48 26
-48 8 0 14 -7 14 -15 0 -8 9 -15 20 -15 11 0 19 3 19 8 -4 21 2 42 11 42 6 0
13 -8 16 -17 3 -10 10 -27 16 -37 8 -15 7 -22 -6 -31 -20 -15 -21 -25 -1 -25
8 0 15 -5 15 -11 0 -6 -9 -9 -19 -6 -10 2 -25 1 -32 -4 -14 -8 -14 -8 37 -24
8 -3 13 -8 10 -13 -2 -4 -1 -14 5 -22 6 -11 9 -6 9 18 0 17 5 32 11 32 7 0 9
10 5 24 -3 14 -1 28 5 31 6 4 7 19 4 35 -5 22 -2 31 13 39 31 17 33 36 6 103
-42 105 -65 147 -87 163 -29 20 -31 20 -66 -16z"/>
<path d="M1421 5594 c0 -11 3 -14 6 -6 3 7 2 16 -1 19 -3 4 -6 -2 -5 -13z"/>
<path d="M1421 5526 c3 -46 12 -53 22 -16 3 11 1 22 -4 25 -4 3 -6 12 -2 20 3
8 0 15 -6 15 -8 0 -11 -16 -10 -44z"/>
<path d="M1330 5362 c0 -10 22 -32 32 -32 15 0 8 15 -12 28 -11 7 -20 9 -20 4z"/>
<path d="M1350 5294 c0 -14 3 -14 15 -4 8 7 15 14 15 16 0 2 -7 4 -15 4 -8 0
-15 -7 -15 -16z"/>
<path d="M1481 5104 c0 -11 3 -14 6 -6 3 7 2 16 -1 19 -3 4 -6 -2 -5 -13z"/>
<path d="M1477 5015 c-4 -38 -11 -71 -17 -73 -16 -6 -12 -22 5 -22 18 0 20
-16 4 -26 -8 -4 -7 -9 2 -15 10 -6 13 -48 15 -166 1 -135 -1 -159 -15 -170
-14 -11 -14 -12 4 -13 15 0 16 -3 7 -12 -25 -25 -14 -55 26 -71 35 -14 35 -15
10 -16 -28 -1 -51 -21 -24 -21 11 0 16 -9 16 -26 0 -21 3 -25 18 -19 53 22 49
11 -13 -29 -76 -49 -83 -61 -14 -22 32 18 47 22 56 14 7 -5 10 -15 7 -20 -4
-6 2 -6 14 1 44 24 113 41 166 42 82 2 79 -7 -5 -14 -84 -7 -154 -37 -156 -67
-1 -13 2 -18 9 -14 7 4 8 2 4 -4 -5 -9 -13 -8 -29 3 -16 10 -26 11 -37 4 -12
-9 -11 -10 5 -5 14 4 10 -2 -13 -21 -38 -33 -40 -45 -9 -67 12 -9 16 -14 10
-11 -8 4 -13 -1 -13 -10 0 -11 6 -15 18 -11 22 7 79 -29 61 -39 -7 -5 -17 -2
-23 6 -13 16 -29 21 -70 22 -24 0 -26 2 -13 12 13 10 13 14 -4 35 -11 14 -18
19 -17 11 5 -24 -22 -24 -31 1 -9 20 -10 21 -10 3 -1 -31 10 -65 19 -60 5 3
11 1 15 -5 3 -5 3 -10 -2 -11 -4 0 -16 -2 -26 -4 -9 -2 -15 1 -12 6 4 5 1 17
-5 26 -10 15 -11 15 -6 1 2 -9 -1 -24 -9 -34 -10 -15 -11 -22 -2 -33 9 -11 9
-13 0 -8 -7 4 -16 0 -22 -10 -8 -15 -13 -16 -30 -5 -17 10 -21 10 -19 0 2 -7
10 -18 18 -25 21 -18 -1 -16 -39 3 -17 9 -28 20 -25 26 4 6 2 8 -4 4 -10 -6
-83 36 -83 49 0 3 12 18 27 33 15 15 23 20 19 12 -5 -8 3 -5 17 8 13 12 30 22
36 22 7 0 12 4 12 10 0 5 -7 7 -16 3 -12 -4 -15 -2 -12 8 3 8 11 13 18 11 28
-7 -57 68 -106 93 -62 31 -99 29 -39 -3 31 -16 35 -21 18 -22 -12 0 -36 15
-54 33 l-32 32 -106 0 c-106 -1 -106 -1 -159 -37 -29 -20 -62 -40 -73 -43 -11
-4 -18 -9 -16 -11 3 -3 44 13 91 34 73 33 98 39 159 41 67 1 74 -1 105 -30 31
-28 33 -32 19 -53 -14 -21 -153 -96 -180 -96 -7 0 -21 -7 -31 -15 -18 -14 -18
-16 15 -53 19 -22 44 -42 56 -46 25 -7 113 -102 113 -122 0 -7 11 -24 25 -38
20 -20 25 -36 26 -78 1 -29 3 -64 4 -78 2 -14 6 -160 10 -325 4 -165 11 -317
15 -337 5 -23 4 -38 -2 -38 -5 0 -7 -8 -4 -17 6 -21 16 -345 20 -608 2 -174 8
-221 27 -209 5 2 23 -5 40 -18 29 -21 40 -23 174 -23 134 0 145 1 175 23 17
13 38 21 46 18 17 -6 16 -11 19 94 2 47 6 117 9 155 2 39 8 203 12 365 6 261
9 325 14 325 1 0 3 61 5 135 2 74 7 171 10 215 3 44 8 141 11 215 5 124 8 140
36 197 26 55 99 133 124 133 16 0 93 66 94 81 0 15 -77 59 -105 59 -8 0 -15 4
-15 10 0 5 -11 12 -25 16 -13 3 -45 21 -71 39 -46 33 -46 33 -23 46 13 6 36
22 50 34 24 20 33 21 94 14 37 -5 88 -19 114 -32 25 -14 61 -32 79 -42 58 -30
45 -10 -23 36 -36 24 -65 49 -65 56 0 6 -17 17 -37 24 -21 6 -41 17 -45 23 -6
8 -10 8 -16 -1 -4 -7 -13 -9 -20 -4 -7 4 -24 6 -38 3 -15 -3 -24 0 -24 9 0 10
-3 10 -12 1 -7 -7 -23 -12 -38 -12 -22 1 -23 2 -7 11 31 18 76 28 82 18 4 -5
11 -9 17 -9 7 0 6 6 -2 15 -10 12 -10 15 4 15 9 0 15 -3 15 -7 -3 -18 2 -33
10 -33 5 0 8 8 6 18 -1 9 0 11 2 5 5 -13 17 -17 42 -14 7 2 10 -3 6 -9 -4 -7
-1 -10 6 -8 20 4 70 -32 62 -45 -3 -6 -1 -7 5 -3 7 4 21 -1 32 -12 41 -38 108
-64 149 -57 24 4 42 2 46 -4 3 -7 -2 -11 -14 -11 -11 0 -22 -4 -26 -9 -7 -13
48 3 100 28 46 23 123 86 114 95 -3 3 -24 -10 -46 -29 -56 -47 -83 -56 -140
-45 -27 5 -57 12 -68 17 -34 14 -215 114 -215 119 0 3 3 3 8 1 124 -65 280
-88 397 -59 54 13 27 19 -31 7 -92 -20 -201 1 -347 67 -155 70 -260 91 -304
63 -17 -12 -22 -22 -18 -36 6 -19 -18 -59 -36 -59 -10 0 -59 85 -59 103 0 9
-5 17 -10 19 -15 5 -19 54 -21 263 -1 105 -5 213 -8 240 l-7 50 -7 -70z m278
-519 c55 -10 135 -39 147 -54 11 -13 10 -14 -12 -8 -59 19 -90 18 -130 -3 -22
-12 -46 -21 -53 -21 -7 0 -39 -18 -72 -40 -33 -22 -64 -40 -68 -40 -5 0 17 25
50 56 58 55 58 55 37 72 l-21 17 21 17 c12 10 31 16 46 13 14 -3 38 -7 55 -9z
m95 -152 c0 -2 -7 -4 -15 -4 -8 0 -15 4 -15 10 0 5 7 7 15 4 8 -4 15 -8 15
-10z m89 -9 c8 -9 -43 -4 -64 6 -15 6 -9 7 19 4 22 -3 42 -8 45 -10z m-241
-41 c-8 -9 -26 -14 -39 -12 l-24 5 25 11 c14 6 32 11 40 11 12 1 12 -2 -2 -15z
m-77 -57 c-10 -9 -11 -8 -5 6 3 10 9 15 12 12 3 -3 0 -11 -7 -18z m-67 -160
c-3 -9 -16 -19 -27 -23 -12 -4 -30 -14 -39 -23 -38 -36 -47 -41 -54 -30 -8 14
63 79 87 79 10 0 21 5 24 11 10 15 17 5 9 -14z m-166 -77 c-3 -23 -1 -30 9
-26 7 3 13 0 13 -6 0 -6 7 -5 18 3 15 12 16 12 5 -1 -8 -10 -9 -21 -3 -30 6
-8 9 -33 8 -55 l-1 -40 -6 40 -6 40 -14 -47 c-15 -53 -23 -58 -48 -28 -10 11
-28 20 -41 20 -23 0 -23 1 7 33 17 17 31 37 31 42 0 6 -5 3 -10 -5 -8 -13 -10
-12 -10 3 0 9 5 17 12 17 6 0 3 10 -8 22 -10 12 -14 18 -7 14 7 -4 18 2 25 14
19 29 31 25 26 -10z m-84 -242 c-3 -13 -13 -31 -22 -40 -12 -14 -12 -21 -3
-32 10 -12 9 -22 -6 -48 l-17 -33 -9 56 c-8 53 -7 57 20 86 34 37 47 41 37 11z
m-9 -258 c-3 -5 -13 -10 -21 -10 -8 0 -14 5 -14 10 0 6 9 10 21 10 11 0 17 -4
14 -10z m320 0 c3 -5 1 -10 -4 -10 -6 0 -11 5 -11 10 0 6 2 10 4 10 3 0 8 -4
11 -10z m-365 -50 c0 -5 -4 -10 -10 -10 -5 0 -10 5 -10 10 0 6 5 10 10 10 6 0
10 -4 10 -10z m-65 -80 c0 -22 -21 -22 -22 1 -1 12 3 19 10 16 7 -2 12 -10 12
-17z m79 -25 c3 -8 1 -15 -4 -15 -6 0 -10 7 -10 15 0 8 2 15 4 15 2 0 6 -7 10
-15z m291 -133 c-3 -3 -11 0 -18 7 -9 10 -8 11 6 5 10 -3 15 -9 12 -12z m-305
-92 c0 -5 -5 -10 -11 -10 -5 0 -7 5 -4 10 3 6 8 10 11 10 2 0 4 -4 4 -10z
m-69 -253 c-10 -9 -11 -8 -5 6 3 10 9 15 12 12 3 -3 0 -11 -7 -18z m35 -171
c10 -26 1 -47 -16 -36 -13 9 -13 11 0 20 13 9 7 14 -12 11 -5 0 -8 4 -8 9 0
15 30 12 36 -4z m81 -48 c-3 -8 -6 -5 -6 6 -1 11 2 17 5 13 3 -3 4 -12 1 -19z
m-97 -73 c7 -9 8 -15 2 -15 -5 0 -12 7 -16 15 -3 8 -4 15 -2 15 2 0 9 -7 16
-15z"/>
<path d="M1400 3931 c0 -17 2 -31 4 -31 8 0 13 51 5 56 -5 3 -9 -9 -9 -25z"/>
<path d="M1341 4930 c0 -29 1 -32 10 -17 7 11 7 23 0 35 -9 14 -10 11 -10 -18z"/>
<path d="M1341 4808 c-1 -45 0 -80 3 -78 6 7 10 149 4 155 -3 3 -6 -32 -7 -77z"/>
<path d="M1342 4685 c0 -16 2 -22 5 -12 2 9 2 23 0 30 -3 6 -5 -1 -5 -18z"/>
<path d="M1335 4601 c-3 -5 -1 -12 5 -16 5 -3 10 1 10 9 0 18 -6 21 -15 7z"/>
<path d="M1323 4533 c-13 -9 -23 -25 -23 -37 -1 -26 -42 -78 -55 -68 -27 19
-37 42 -26 56 10 12 7 18 -19 31 -18 9 -34 14 -37 12 -2 -3 5 -11 18 -17 l23
-13 -27 -14 c-41 -21 -33 -45 29 -86 62 -40 76 -45 68 -22 -6 16 19 80 36 90
5 3 11 1 15 -5 8 -12 25 -13 25 -1 0 5 -9 11 -20 14 -23 6 -18 33 8 54 23 19
10 23 -15 6z"/>
<path d="M1085 4520 c-28 -7 -28 -8 -5 -9 14 0 32 4 40 9 17 11 8 11 -35 0z"/>
<path d="M1005 4504 c-76 -27 -187 -78 -176 -82 6 -2 32 7 58 21 27 13 72 32
101 41 28 10 54 22 57 27 4 5 5 8 3 8 -2 -1 -21 -8 -43 -15z"/>
<path d="M1425 4460 c3 -5 10 -10 16 -10 5 0 9 5 9 10 0 6 -7 10 -16 10 -8 0
-12 -4 -9 -10z"/>
<path d="M1323 4413 c9 -2 23 -2 30 0 6 3 -1 5 -18 5 -16 0 -22 -2 -12 -5z"/>
<path d="M1366 4405 c-3 -8 -13 -15 -23 -15 -13 -1 -11 -5 10 -16 23 -12 34
-13 70 -2 39 11 40 12 14 16 -16 2 -31 10 -34 18 -7 18 -29 18 -37 -1z"/>
<path d="M1423 4413 c9 -2 23 -2 30 0 6 3 -1 5 -18 5 -16 0 -22 -2 -12 -5z"/>
<path d="M550 4396 c19 -8 60 -14 90 -14 l55 1 -65 8 c-36 4 -76 10 -90 13
-14 4 -9 0 10 -8z"/>
<path d="M708 4393 c7 -3 16 -2 19 1 4 3 -2 6 -13 5 -11 0 -14 -3 -6 -6z"/>
<path d="M480 4355 c38 -39 93 -68 118 -62 11 3 6 7 -16 12 -17 4 -52 25 -76
46 -55 48 -72 51 -26 4z"/>
<path d="M909 4370 l-24 -21 35 17 c43 21 47 24 28 24 -9 0 -26 -9 -39 -20z"/>
<path d="M1170 4350 c0 -5 5 -10 11 -10 5 0 7 5 4 10 -3 6 -8 10 -11 10 -2 0
-4 -4 -4 -10z"/>
<path d="M2120 4339 c0 -10 77 -39 101 -39 17 0 99 35 99 43 0 1 -45 2 -100 2
-55 0 -100 -3 -100 -6z"/>
<path d="M1304 4279 c0 -10 4 -19 8 -19 4 0 8 6 8 14 0 8 -4 17 -8 20 -4 2 -8
-4 -8 -15z"/>
<path d="M1430 4262 c0 -6 -6 -10 -12 -8 -7 1 -10 1 -5 -1 4 -3 7 -14 8 -26 1
-18 3 -16 10 7 4 17 6 32 4 35 -3 2 -5 -1 -5 -7z"/>
<path d="M1489 4265 c-1 -3 -2 -8 -3 -12 -1 -5 -5 -14 -9 -20 -10 -16 5 -17
21 -1 15 15 16 38 2 38 -5 0 -11 -2 -11 -5z"/>
<path d="M2110 4242 c0 -4 11 -9 25 -10 14 -1 25 3 25 8 0 6 -11 10 -25 10
-14 0 -25 -4 -25 -8z"/>
<path d="M1248 4097 c7 -8 8 -18 4 -22 -4 -5 -1 -5 6 -1 17 10 15 23 -4 30
-13 5 -14 4 -6 -7z"/>
<path d="M1340 4091 c0 -5 7 -12 16 -15 14 -5 15 -4 4 9 -14 17 -20 19 -20 6z"/>
<path d="M1185 1974 c2 -25 12 -55 21 -66 18 -19 18 -19 29 19 10 34 14 38 41
35 22 -2 26 0 14 8 -8 5 -25 10 -36 10 -12 0 -33 9 -47 20 l-26 21 4 -47z"/>
<path d="M1596 1995 c-11 -8 -28 -15 -39 -15 -10 0 -15 -5 -12 -10 4 -6 11 -8
16 -4 5 3 9 2 8 -3 -1 -4 2 -23 6 -41 7 -30 9 -32 28 -19 13 9 21 27 24 60 4
50 -1 55 -31 32z"/>
<path d="M1318 1961 c16 -11 23 -62 11 -77 -9 -11 -7 -14 12 -15 13 0 33 -2
44 -4 11 -3 34 -2 50 1 27 5 30 9 30 42 -1 32 3 38 30 48 25 10 13 12 -78 11
-59 0 -104 -3 -99 -6z"/>
<path d="M1115 1697 c-25 -72 -58 -214 -60 -262 -2 -33 -13 -91 -24 -130 -11
-38 -18 -71 -16 -73 2 -2 6 6 10 17 6 20 6 20 38 1 33 -21 52 -26 43 -12 -2 4
4 43 14 87 10 44 21 96 24 115 3 19 12 65 19 103 8 37 12 67 10 67 -3 0 0 7 7
15 6 8 9 19 5 25 -4 6 -3 10 2 9 38 -7 12 22 -35 39 -25 9 -34 8 -37 -1z"/>
<path d="M1642 1689 c-36 -15 -41 -22 -34 -36 10 -18 30 -105 37 -155 12 -83
38 -225 45 -238 4 -8 5 -21 3 -27 -7 -18 5 -16 43 8 l34 20 16 -60 c10 -34 19
-59 21 -57 2 2 -6 39 -17 82 -39 144 -41 156 -31 187 6 16 8 34 5 39 -3 5 -8
23 -11 40 -2 16 -15 64 -29 106 -13 42 -24 82 -24 89 0 21 -14 21 -58 2z"/>
<path d="M1295 1626 c-3 -17 -5 -40 -5 -51 -1 -23 -6 -79 -16 -151 l-7 -52 34
-8 c48 -11 189 -6 205 7 13 10 11 99 -2 169 -3 14 -6 45 -7 70 l-2 44 -97 2
-98 1 -5 -31z"/>
<path d="M932 1208 c-12 -29 -18 -56 -14 -60 5 -5 16 17 26 48 10 31 16 58 14
60 -2 2 -14 -20 -26 -48z"/>
<path d="M1850 1229 c0 -11 21 -91 26 -98 2 -1 7 0 13 3 6 4 4 22 -6 51 -14
44 -33 68 -33 44z"/>
<path d="M1818 1095 c2 -16 8 -39 12 -50 6 -15 8 -10 8 18 0 20 -4 37 -8 37
-5 0 -10 6 -13 13 -2 6 -2 -1 1 -18z"/>
<path d="M964 1112 c-6 -4 -8 -18 -4 -32 l6 -25 8 29 c8 32 5 38 -10 28z"/>
<path d="M1220 1098 c-1 -13 -7 -40 -14 -60 -12 -34 -12 -37 8 -42 12 -3 35
-6 51 -6 l30 0 -5 62 c-5 63 -5 63 -37 66 -29 3 -33 0 -33 -20z"/>
<path d="M1518 1112 c-27 -3 -28 -6 -28 -58 0 -30 0 -57 0 -61 1 -8 79 -8 86
0 5 5 -17 110 -25 117 -3 3 -18 4 -33 2z"/>
<path d="M1841 1004 c0 -11 3 -14 6 -6 3 7 2 16 -1 19 -3 4 -6 -2 -5 -13z"/>
<path d="M740 755 c1 -43 6 -77 14 -88 13 -16 14 -16 19 4 10 38 0 121 -17
137 -15 15 -16 10 -16 -53z"/>
<path d="M2032 770 c-6 -11 -12 -50 -12 -87 l1 -68 19 24 c15 18 20 38 20 87
0 67 -7 78 -28 44z"/>
<path d="M1924 690 c0 -52 1 -74 3 -47 2 26 2 68 0 95 -2 26 -3 4 -3 -48z"/>
<path d="M1020 555 c0 -82 -3 -77 68 -99 21 -7 22 -6 22 69 0 82 3 77 -67 99
-22 7 -23 6 -23 -69z"/>
<path d="M1680 601 c-24 -6 -25 -11 -28 -85 l-3 -78 33 7 c64 14 68 19 68 95
0 76 -4 79 -70 61z"/>
</g>
</svg>
