<?xml version="1.0" standalone="no"?>
<!DOCTYPE svg PUBLIC "-//W3C//DTD SVG 20010904//EN"
 "http://www.w3.org/TR/2001/REC-SVG-20010904/DTD/svg10.dtd">
<svg version="1.0" xmlns="http://www.w3.org/2000/svg"
 width="284.000000pt" height="597.000000pt" viewBox="0 0 284.000000 597.000000"
 preserveAspectRatio="xMidYMid meet">

<g transform="translate(0.000000,597.000000) scale(0.100000,-0.100000)"
fill="#000000" stroke="none">
<path d="M1424 5719 c-15 -16 -25 -31 -22 -34 3 -3 13 6 22 20 11 17 25 25 38
23 20 -3 41 -48 75 -163 3 -11 10 -26 16 -33 16 -20 -8 -39 -28 -22 -13 11
-18 10 -30 -6 -8 -10 -15 -15 -15 -10 0 5 -9 1 -21 -10 -21 -19 -21 -19 -46
11 -24 29 -25 29 -19 5 3 -14 6 -28 6 -32 0 -5 7 -8 15 -8 8 0 15 -7 15 -15 0
-8 9 -15 21 -15 11 0 18 3 16 8 -3 4 -2 15 2 24 7 19 31 10 34 -13 2 -8 6 -20
11 -28 6 -9 3 -18 -7 -26 -21 -15 -22 -25 -2 -25 8 0 15 -4 15 -10 0 -5 -11
-10 -24 -10 -37 0 -40 -17 -4 -24 33 -7 61 16 51 41 -3 7 0 20 7 28 6 8 9 23
5 35 -5 15 0 29 16 46 21 22 21 26 9 66 -29 90 -78 184 -103 195 -22 10 -28 8
-53 -18z"/>
<path d="M1450 5700 c0 -11 4 -20 9 -20 5 0 7 9 4 20 -3 11 -7 20 -9 20 -2 0
-4 -9 -4 -20z"/>
<path d="M1391 5654 c0 -11 3 -14 6 -6 3 7 2 16 -1 19 -3 4 -6 -2 -5 -13z"/>
<path d="M1462 5587 c1 -44 5 -64 11 -58 12 12 11 44 -2 91 -8 31 -9 27 -9
-33z"/>
<path d="M1373 5613 c-3 -10 -8 -22 -11 -27 -3 -5 0 -6 5 -3 11 7 25 47 17 47
-3 0 -7 -8 -11 -17z"/>
<path d="M1339 5534 c-16 -33 -16 -34 13 -61 16 -15 26 -33 24 -39 -3 -7 2
-11 9 -10 30 4 27 17 -9 51 -32 29 -36 37 -26 55 6 12 10 25 8 29 -2 5 -10 -7
-19 -25z"/>
<path d="M1387 5384 c6 -15 23 -19 23 -5 0 5 -7 11 -14 14 -10 4 -13 1 -9 -9z"/>
<path d="M1395 5340 c4 -6 11 -8 16 -5 14 9 11 15 -7 15 -8 0 -12 -5 -9 -10z"/>
<path d="M1516 5033 c-3 -3 -6 -17 -6 -30 0 -12 -4 -23 -10 -23 -5 0 -10 -4
-10 -10 0 -5 7 -10 15 -10 16 0 21 -16 7 -22 -4 -1 -2 -14 5 -28 11 -22 13
-23 13 -5 0 11 3 43 6 71 6 47 -4 73 -20 57z"/>
<path d="M1531 4624 c0 -11 3 -14 6 -6 3 7 2 16 -1 19 -3 4 -6 -2 -5 -13z"/>
<path d="M1530 4593 c0 -6 -8 -14 -17 -16 -17 -4 -17 -5 0 -6 20 -1 21 -5 5
-30 -16 -27 -4 -48 34 -57 l33 -7 -35 -10 c-33 -9 -34 -10 -13 -19 18 -9 20
-15 13 -34 l-10 -24 36 15 c67 28 59 15 -19 -31 -43 -25 -88 -47 -101 -48 -14
0 -23 -3 -20 -5 2 -2 -4 -10 -14 -17 -16 -11 -16 -13 1 -32 10 -10 15 -26 11
-35 -7 -19 24 -87 39 -87 6 0 -4 -13 -23 -29 -34 -29 -35 -29 -50 -10 -10 13
-30 20 -62 22 -25 1 -44 -1 -42 -5 3 -5 10 -8 16 -8 12 0 93 -82 116 -116 7
-10 15 -14 17 -9 35 70 54 92 102 115 57 27 63 35 34 45 -11 3 -22 13 -25 21
-3 8 -2 13 2 11 4 -2 29 -14 57 -27 l50 -22 -52 -19 c-71 -27 -137 -88 -159
-147 -10 -26 -21 -52 -26 -58 -5 -7 -2 -16 6 -23 12 -10 16 -5 26 24 6 19 14
35 17 35 3 0 16 -9 30 -20 24 -18 24 -20 5 -20 -11 0 -30 -11 -43 -25 -29 -30
-41 -31 -64 -5 -10 11 -25 20 -33 20 -13 0 -13 -2 2 -13 9 -7 18 -19 19 -27 2
-8 7 -21 11 -29 6 -10 5 -12 -2 -7 -8 5 -10 2 -6 -8 3 -9 11 -13 17 -9 6 4 7
1 1 -8 -5 -8 -9 -18 -9 -24 -1 -5 -10 -30 -20 -55 -11 -25 -18 -49 -16 -55 12
-37 9 -55 -10 -68 l-20 -15 20 -41 c29 -56 29 -168 1 -204 -25 -32 -26 -94 -4
-289 8 -77 13 -147 9 -156 -3 -8 0 -21 6 -28 7 -9 8 -14 1 -14 -5 0 -12 -20
-14 -45 -2 -35 0 -45 12 -46 9 0 5 -4 -7 -9 -13 -5 -23 -12 -23 -15 0 -4 4 -4
8 -1 5 3 8 -31 7 -75 -1 -51 2 -79 9 -79 7 0 7 -3 1 -8 -14 -10 -17 -32 -4
-32 5 0 7 -5 3 -11 -12 -20 -13 -89 -1 -102 7 -7 13 -17 14 -22 0 -6 4 -26 8
-45 3 -19 7 -41 7 -47 1 -7 5 -13 9 -13 4 0 6 -9 4 -20 -2 -11 1 -20 7 -20 6
0 9 -3 6 -6 -4 -3 -2 -19 2 -35 7 -24 6 -29 -8 -29 -16 -1 -16 -1 -1 -10 28
-16 174 0 211 23 18 12 40 21 48 21 11 1 15 19 16 86 2 47 5 126 8 175 2 50 7
218 11 375 4 157 9 292 12 300 3 8 7 85 9 170 4 184 11 346 18 377 3 13 -2 29
-10 38 -12 12 -13 16 -2 20 8 3 14 26 15 59 4 77 61 167 147 230 110 81 110
77 14 124 -46 23 -103 59 -128 80 l-44 39 32 17 c17 9 32 21 32 26 0 41 154
26 252 -25 89 -46 94 -44 19 6 -33 22 -61 47 -61 55 0 7 -12 17 -27 20 -16 4
-32 9 -37 12 -6 3 -35 7 -65 9 -31 2 -60 4 -66 4 -5 1 -19 -2 -30 -6 -18 -7
-19 -6 -5 9 19 20 80 39 80 25 0 -6 5 -7 10 -4 6 3 10 1 10 -5 0 -6 5 -8 10
-5 16 10 12 25 -7 26 -11 0 -13 3 -5 6 7 2 28 -9 48 -26 37 -33 55 -41 34 -16
-17 20 -8 19 18 -2 54 -47 62 -52 62 -45 0 4 4 2 8 -4 16 -25 123 -74 147 -68
14 3 39 1 57 -5 17 -6 34 -7 37 -3 3 5 21 17 39 26 17 9 32 19 32 22 0 2 -14
-3 -31 -11 -56 -30 -108 -15 -303 88 -48 26 -93 44 -99 40 -6 -3 -7 -1 -3 5 4
7 4 12 -1 12 -4 1 -25 3 -46 6 -27 4 -47 0 -73 -15 -20 -12 -41 -20 -47 -19
-7 1 -45 -19 -86 -46 -89 -57 -124 -72 -61 -25 75 56 90 72 90 96 0 30 -5 29
-39 -9 -25 -28 -31 -30 -45 -19 -9 7 -16 19 -16 26 0 7 -7 18 -15 25 -8 7 -15
19 -15 26 0 7 -9 28 -20 46 -11 18 -20 28 -20 21z m320 -206 c-3 -3 -30 -7
-60 -10 -94 -10 -194 -54 -243 -105 -23 -23 -28 -38 -26 -65 2 -20 1 -39 -3
-42 -14 -14 -47 7 -57 37 -14 40 -2 59 14 22 l12 -29 11 25 c17 41 25 65 24
71 -2 10 79 52 143 74 51 18 200 35 185 22z m53 -4 c-7 -2 -21 -2 -30 0 -10 3
-4 5 12 5 17 0 24 -2 18 -5z m70 -10 c-7 -2 -21 -2 -30 0 -10 3 -4 5 12 5 17
0 24 -2 18 -5z m-269 -70 c-41 -31 -50 -34 -72 -24 -13 7 -22 14 -20 16 11 11
124 53 130 48 5 -2 -13 -20 -38 -40z m-224 -10 c0 -5 -5 -15 -10 -23 -9 -13
-11 -13 -19 0 -7 10 -6 17 2 22 15 10 27 10 27 1z m295 -223 c3 -5 1 -10 -4
-10 -6 0 -11 5 -11 10 0 6 2 10 4 10 3 0 8 -4 11 -10z m45 -10 c0 -5 -5 -10
-11 -10 -5 0 -7 5 -4 10 3 6 8 10 11 10 2 0 4 -4 4 -10z m-47 -45 c-22 -29
-26 -26 -11 7 7 15 16 24 20 22 5 -3 0 -16 -9 -29z m37 -14 c0 -6 -4 -13 -10
-16 -5 -3 -10 1 -10 9 0 9 5 16 10 16 6 0 10 -4 10 -9z m-20 -35 c0 -3 -4 -8
-10 -11 -5 -3 -10 -1 -10 4 0 6 5 11 10 11 6 0 10 -2 10 -4z m-184 -237 c1
-22 -11 -33 -26 -24 -8 5 -8 11 -1 19 8 10 5 18 -9 31 -30 27 -24 40 8 15 15
-12 28 -30 28 -41z m64 -29 c0 -5 -4 -10 -10 -10 -5 0 -10 5 -10 10 0 6 5 10
10 10 6 0 10 -4 10 -10z m-76 -26 c5 -14 4 -15 -9 -4 -17 14 -19 20 -6 20 5 0
12 -7 15 -16z m63 -150 c-9 -9 -28 6 -21 18 4 6 10 6 17 -1 6 -6 8 -13 4 -17z
m15 -89 c-4 -26 -22 -35 -22 -12 0 10 18 37 26 37 1 0 -1 -11 -4 -25z m-72
-187 c0 -13 -23 -5 -28 10 -2 7 2 10 12 6 9 -3 16 -11 16 -16z m-63 -504 c-9
-9 -28 6 -21 18 4 6 10 6 17 -1 6 -6 8 -13 4 -17z m-157 -34 c0 -5 -4 -10 -10
-10 -5 0 -10 5 -10 10 0 6 5 10 10 10 6 0 10 -4 10 -10z m-2 -275 c-3 -3 -9 2
-12 12 -6 14 -5 15 5 6 7 -7 10 -15 7 -18z"/>
<path d="M1684 4536 c-10 -8 -16 -17 -13 -20 3 -3 14 3 24 14 21 23 17 26 -11
6z"/>
<path d="M1216 4519 c-40 -32 -35 -44 42 -92 47 -30 64 -34 56 -12 -4 8 1 31
11 51 14 30 21 35 41 30 14 -4 24 -2 24 4 0 23 -49 9 -71 -21 l-21 -30 -29 27
c-19 18 -27 34 -23 46 7 23 3 23 -30 -3z"/>
<path d="M1828 4528 c5 -5 16 -8 23 -6 8 3 3 7 -10 11 -17 4 -21 3 -13 -5z"/>
<path d="M1887 4509 c7 -7 15 -10 18 -7 3 3 -2 9 -12 12 -14 6 -15 5 -6 -5z"/>
<path d="M1465 4500 c3 -5 11 -10 16 -10 6 0 7 5 4 10 -3 6 -11 10 -16 10 -6
0 -7 -4 -4 -10z"/>
<path d="M1935 4486 c50 -34 155 -75 205 -80 l55 -6 -80 24 c-44 14 -102 36
-130 50 -54 28 -82 35 -50 12z"/>
<path d="M1363 4453 c9 -2 23 -2 30 0 6 3 -1 5 -18 5 -16 0 -22 -2 -12 -5z"/>
<path d="M1465 4450 c3 -5 12 -7 20 -3 21 7 19 13 -6 13 -11 0 -18 -4 -14 -10z"/>
<path d="M1905 4430 c3 -5 8 -10 11 -10 2 0 4 5 4 10 0 6 -5 10 -11 10 -5 0
-7 -4 -4 -10z"/>
<path d="M1380 4419 c0 -6 6 -9 14 -6 7 3 18 1 24 -5 8 -8 92 6 92 16 0 9 -66
3 -72 -7 -5 -9 -10 -9 -20 1 -15 15 -38 16 -38 1z"/>
<path d="M535 4390 c10 -11 20 -20 23 -20 3 0 -3 9 -13 20 -10 11 -20 20 -23
20 -3 0 3 -9 13 -20z"/>
<path d="M1210 4390 c0 -5 5 -10 11 -10 5 0 7 5 4 10 -3 6 -8 10 -11 10 -2 0
-4 -4 -4 -10z"/>
<path d="M2228 4393 c17 -2 47 -2 65 0 17 2 3 4 -33 4 -36 0 -50 -2 -32 -4z"/>
<path d="M2389 4373 l-24 -26 27 19 c15 10 28 22 28 27 0 12 -5 8 -31 -20z"/>
<path d="M939 4383 c-34 -3 -53 -11 -70 -30 l-24 -25 42 21 c23 11 57 21 75
21 18 0 40 5 48 10 12 8 11 9 -5 8 -11 -1 -41 -3 -66 -5z"/>
<path d="M2251 4381 l-94 -6 37 -17 c48 -23 93 -23 134 2 30 18 42 33 25 28
-5 -1 -50 -4 -102 -7z"/>
<path d="M1129 4338 c46 -37 49 -42 32 -52 -10 -6 -40 -27 -67 -48 -26 -20
-66 -41 -89 -48 -22 -7 -50 -17 -62 -24 -20 -10 -21 -12 -5 -31 10 -11 44 -40
77 -64 69 -51 100 -84 116 -122 6 -15 18 -30 26 -33 10 -4 4 13 -17 50 -34 62
-35 86 -1 30 26 -41 48 -50 85 -37 26 10 33 4 19 -15 -5 -5 1 0 11 11 l19 20
-6 -23 c-3 -12 -1 -20 4 -16 5 3 9 13 9 22 1 13 5 10 16 -8 l15 -25 -7 25 -6
25 18 -25 c9 -14 19 -27 21 -29 2 -3 17 9 34 25 23 22 29 34 24 54 -9 35 -54
80 -73 73 -11 -5 -14 -2 -9 10 3 9 3 17 -2 17 -5 0 -30 10 -57 21 l-48 22 35
18 c20 10 41 25 48 33 8 9 19 16 27 16 31 0 23 45 -15 80 -27 25 -94 68 -118
75 -38 11 -25 -11 17 -30 53 -24 68 -42 44 -52 -10 -4 -19 -2 -22 5 -2 7 -8
12 -12 12 -13 0 -76 60 -65 61 16 1 -28 18 -49 18 -13 1 -2 -12 33 -41z m-119
-217 c0 -6 -4 -13 -10 -16 -5 -3 -10 1 -10 9 0 9 5 16 10 16 6 0 10 -4 10 -9z
m118 -19 c2 -16 -2 -22 -15 -22 -15 0 -15 2 -4 9 13 8 13 12 0 27 -12 15 -12
17 1 12 8 -2 16 -14 18 -26z m107 -2 c3 -5 1 -10 -4 -10 -6 0 -11 5 -11 10 0
6 2 10 4 10 3 0 8 -4 11 -10z m115 -70 c0 -5 -5 -10 -11 -10 -5 0 -7 5 -4 10
3 6 8 10 11 10 2 0 4 -4 4 -10z m-2 -95 c-3 -3 -9 2 -12 12 -6 14 -5 15 5 6 7
-7 10 -15 7 -18z"/>
<path d="M618 4338 c6 -6 18 -8 28 -6 14 3 12 5 -9 10 -19 3 -25 2 -19 -4z"/>
<path d="M1346 4298 c5 -37 24 -64 24 -32 0 28 -11 64 -20 64 -4 0 -6 -14 -4
-32z"/>
<path d="M1305 4170 c-3 -5 -1 -10 4 -10 6 0 11 5 11 10 0 6 -2 10 -4 10 -3 0
-8 -4 -11 -10z"/>
<path d="M1166 3863 c6 -49 14 -55 12 -9 -1 20 -5 39 -9 42 -4 2 -5 -12 -3
-33z"/>
<path d="M1191 3224 c0 -11 3 -14 6 -6 3 7 2 16 -1 19 -3 4 -6 -2 -5 -13z"/>
<path d="M1196 3135 c-3 -8 -1 -15 4 -15 6 0 10 7 10 15 0 8 -2 15 -4 15 -2 0
-6 -7 -10 -15z"/>
<path d="M1200 3025 c0 -14 4 -25 9 -25 4 0 6 11 3 25 -2 14 -6 25 -8 25 -2 0
-4 -11 -4 -25z"/>
<path d="M1200 2970 c0 -11 4 -20 8 -20 4 0 8 9 9 20 1 11 -2 20 -8 20 -5 0
-9 -9 -9 -20z"/>
<path d="M1207 2933 c-9 -9 -9 -43 1 -43 4 0 8 11 8 25 2 27 1 29 -9 18z"/>
<path d="M1200 2858 c0 -7 4 -19 9 -27 6 -9 9 -5 9 13 0 14 -4 26 -9 26 -5 0
-9 -6 -9 -12z"/>
<path d="M1207 2773 c-2 -5 -1 -19 4 -33 7 -23 7 -23 8 8 1 31 -3 40 -12 25z"/>
<path d="M1211 2694 c0 -11 3 -14 6 -6 3 7 2 16 -1 19 -3 4 -6 -2 -5 -13z"/>
<path d="M1230 2015 c0 -14 5 -25 10 -25 7 0 7 -6 0 -20 -9 -16 -8 -18 5 -14
11 5 13 2 9 -10 -3 -9 -2 -16 4 -16 9 0 22 45 22 75 0 6 -11 17 -25 23 -23 11
-25 10 -25 -13z"/>
<path d="M1631 2022 c-19 -14 -21 -23 -15 -59 3 -24 11 -40 16 -37 5 3 7 12 4
20 -3 8 3 23 14 34 20 20 27 60 11 60 -5 0 -19 -8 -30 -18z"/>
<path d="M1375 1950 l0 -50 66 0 67 0 -5 44 c-5 37 -2 45 13 49 11 3 -17 5
-61 6 l-80 1 0 -50z m59 -17 c-7 20 25 24 44 5 21 -21 13 -28 -33 -28 -31 0
-45 4 -45 13 0 23 12 27 27 9 12 -16 13 -16 7 1z"/>
<path d="M1159 1712 c-8 -21 -7 -29 7 -39 9 -7 20 -10 24 -8 5 3 7 -13 6 -35
-1 -51 9 -52 17 -2 4 20 9 49 13 63 5 23 2 28 -25 37 -30 10 -32 9 -42 -16z"/>
<path d="M1690 1724 c-19 -6 -35 -16 -35 -20 0 -5 4 -31 9 -59 6 -39 10 -46
17 -32 6 9 8 20 6 25 -5 9 30 43 41 40 10 -4 15 43 5 51 -4 4 -24 2 -43 -5z"/>
<path d="M1343 1673 c-3 -7 -6 -41 -7 -76 0 -34 -4 -64 -7 -67 -10 -8 -20
-120 -11 -120 5 0 9 14 11 30 4 72 6 80 19 85 7 2 10 1 7 -4 -3 -5 -1 -12 5
-16 5 -3 10 0 10 7 0 9 3 9 10 -2 8 -13 10 -13 10 -1 0 11 4 10 14 -4 13 -18
14 -17 11 8 -2 15 1 25 6 21 5 -3 6 -10 3 -16 -5 -7 -2 -8 5 -4 7 5 10 14 7
22 -3 7 0 16 6 20 6 4 8 3 4 -4 -3 -6 -2 -13 2 -16 11 -6 9 34 -1 52 -5 7 -3
12 7 12 9 0 16 5 16 10 0 12 22 9 32 -5 5 -6 8 -4 9 5 1 33 18 -27 18 -70 1
-25 5 -51 10 -59 5 -7 5 -28 1 -47 -6 -27 -5 -34 7 -34 12 0 14 9 10 43 -3 23
-8 76 -11 118 -9 133 -3 126 -108 126 -66 0 -91 -4 -95 -14z"/>
<path d="M1680 1566 c0 -8 4 -17 9 -20 5 -4 7 3 4 14 -6 23 -13 26 -13 6z"/>
<path d="M1177 1521 c-4 -17 -3 -21 5 -13 5 5 8 16 6 23 -3 8 -7 3 -11 -10z"/>
<path d="M1692 1505 c0 -16 2 -22 5 -12 2 9 2 23 0 30 -3 6 -5 -1 -5 -18z"/>
<path d="M1701 1445 c1 -19 18 -51 18 -35 0 8 -4 22 -9 30 -5 8 -9 11 -9 5z"/>
<path d="M1781 1418 c-5 -13 -8 -25 -6 -28 11 -25 18 -49 21 -70 1 -14 9 -38
18 -55 9 -16 16 -36 16 -44 0 -8 2 -12 5 -9 3 3 -6 49 -21 102 -14 54 -23 104
-20 112 3 8 3 14 0 14 -2 0 -8 -10 -13 -22z"/>
<path d="M1076 1350 c-30 -94 -31 -102 -11 -73 8 12 16 33 17 47 1 14 5 26 9
26 8 0 22 70 15 77 -2 3 -16 -32 -30 -77z"/>
<path d="M1710 1376 c0 -8 4 -17 9 -20 5 -4 7 3 4 14 -6 23 -13 26 -13 6z"/>
<path d="M1131 1291 c-6 -10 -7 -21 -4 -25 12 -12 18 -6 18 19 0 30 -1 31 -14
6z"/>
<path d="M1731 1283 c-1 -25 2 -31 14 -27 10 4 12 10 7 18 -5 6 -12 18 -15 26
-3 8 -6 1 -6 -17z"/>
<path d="M976 1245 c-10 -25 -16 -51 -13 -58 2 -6 12 12 21 41 22 66 15 79 -8
17z"/>
<path d="M1893 1250 c7 -49 25 -92 36 -85 10 6 -8 70 -29 103 -9 14 -10 10 -7
-18z"/>
<path d="M1001 1141 c-10 -6 -10 -10 -1 -16 13 -8 24 -1 19 14 -3 6 -10 7 -18
2z"/>
<path d="M1265 1138 c-2 -7 -9 -33 -14 -58 -11 -52 -5 -60 49 -60 l35 0 -3 65
c-4 65 -4 65 -33 65 -16 0 -32 -6 -34 -12z"/>
<path d="M1548 1143 c-15 -4 -18 -16 -18 -64 l0 -59 45 0 46 0 -7 38 c-17 89
-23 97 -66 85z"/>
<path d="M1860 1114 c0 -8 5 -12 10 -9 6 3 10 10 10 16 0 5 -4 9 -10 9 -5 0
-10 -7 -10 -16z"/>
<path d="M1871 1074 c0 -11 3 -14 6 -6 3 7 2 16 -1 19 -3 4 -6 -2 -5 -13z"/>
<path d="M780 790 c1 -70 23 -130 35 -97 12 30 0 127 -18 145 -16 15 -17 12
-17 -48z"/>
<path d="M2077 809 c-14 -21 -17 -42 -15 -95 l3 -69 18 26 c14 21 17 42 15 95
l-3 69 -18 -26z"/>
<path d="M1964 715 c0 -55 1 -76 3 -47 2 29 2 74 0 100 -2 26 -3 2 -3 -53z"/>
<path d="M1062 584 l3 -77 39 -14 c22 -7 40 -12 41 -11 7 8 12 136 7 145 -4 6
-18 14 -32 17 -66 19 -61 25 -58 -60z"/>
<path d="M1720 631 c-24 -6 -25 -11 -28 -85 l-3 -78 33 7 c64 14 68 19 68 95
0 76 -4 79 -70 61z"/>
</g>
</svg>
